SplineFontDB: 3.0
FontName: Boon-Black
FullName: Boon Black
FamilyName: Boon
Weight: Black
Copyright: Created by Sungsit Sawaiwan with FontForge 2.0 (http://fontforge.sf.net)
UComments: "2013-5-2: Created." 
Version: 0.1
ItalicAngle: 0
UnderlinePosition: -60
UnderlineWidth: 20
Ascent: 900
Descent: 300
woffMajor: 0
woffMinor: 1
LayerCount: 2
Layer: 0 0 "Back"  1
Layer: 1 0 "Fore"  0
FSType: 8
OS2Version: 0
OS2_WeightWidthSlopeOnly: 0
OS2_UseTypoMetrics: 1
CreationTime: 1367466433
ModificationTime: 1368308637
PfmFamily: 33
TTFWeight: 900
TTFWidth: 5
LineGap: 108
VLineGap: 0
Panose: 2 0 10 3 0 0 0 0 0 0
OS2TypoAscent: 0
OS2TypoAOffset: 1
OS2TypoDescent: 0
OS2TypoDOffset: 1
OS2TypoLinegap: 108
OS2WinAscent: 0
OS2WinAOffset: 1
OS2WinDescent: 0
OS2WinDOffset: 1
HheadAscent: 0
HheadAOffset: 1
HheadDescent: 0
HheadDOffset: 1
OS2Vendor: 'PfEd'
OS2CodePages: 00010001.00000000
OS2UnicodeRanges: 01000001.10000000.00000000.00000000
Lookup: 2 0 0 "'ccmp' Thai Sara Am Decompose"  {"Thai Sara Am Decompose"  } ['ccmp' ('DFLT' <'dflt' > 'thai' <'KUY ' 'PAL ' 'SAN ' 'THA ' 'dflt' > ) ]
Lookup: 6 0 0 "'ccmp' Thai Composition Handle"  {"Descent Remove"  } ['ccmp' ('DFLT' <'dflt' > 'thai' <'KUY ' 'PAL ' 'SAN ' 'THA ' 'dflt' > ) ]
Lookup: 1 0 0 "Thai Descent Remove"  {"Thai Descent Remove" ("descless" ) } []
Lookup: 4 0 1 "'liga' Thai Ligature Handle"  {"Tone-Nikhahit Ligature"  } ['liga' ('DFLT' <'dflt' > 'thai' <'KUY ' 'PAL ' 'SAN ' 'THA ' 'dflt' > ) ]
Lookup: 264 0 0 "'ccmp' Thai Vowel, Tone & Diacritic Handle"  {"'ccmp' General Logic"  "'ccmp' Thai Ascent Consonant, Tone and Nikhahit"  } ['ccmp' ('DFLT' <'dflt' > 'thai' <'KUY ' 'PAL ' 'SAN ' 'THA ' 'dflt' > ) ]
Lookup: 257 0 0 "Thai Normal Upper Vowel Adjust"  {"Normal Upper Vowel"  } []
Lookup: 257 0 0 "Thai Left Upper Vowel"  {"Left Upper Vowel"  } []
Lookup: 257 0 0 "Thai Lower Vowel Adjust"  {"Lower Vowel"  } []
Lookup: 257 0 0 "Thai High Tone Adjust"  {"High Tone"  } []
Lookup: 257 0 0 "Thai Low Tone Adjust"  {"Low Tone"  } []

StartChar: Boon
Encoding: 63743 63743 0
Width: 1450
VWidth: 0
Flags: W
HStem: -394 181<560.402 640.588> -320 100<1085.38 1199.88> -123 75<560.516 639.484> -113 65<949.488 1030.51> -12 120<379.5 527.377 1083.43 1179.58> 498 120<722.957 849.652> 512 100<151.832 248.168>
VStem: 40 100<403.092 500.168> 170 190<127.105 301.374> 260 100<403.108 499.443> 480 75<-208.066 -128.515> 530 190<118.485 492.666> 560 160<-394 -269.086> 645 75<-208.588 -129.619> 880 190<121.59 464.65> 880 65<-197.852 -117.488> 1035 65<-198.71 -117.488> 1180 190<113.552 590>
LayerCount: 2
Fore
SplineSet
780 618 m 1x0d9040
 976 618 1069 503 1070 340 c 1
 1070 200 l 2
 1070 137 1091 108 1125 108 c 0
 1159 108 1180 130 1180 130 c 1
 1180 590 l 1
 1370 590 l 1
 1370 60 l 1
 1370 60 1277 -12 1125 -12 c 0
 973 -12 880 56 880 200 c 2
 880 340 l 2
 880 423 873 498 780 498 c 0
 734 498 720 475 720 475 c 1x0d9240
 720 60 l 1
 720 60 648 -12 435 -12 c 0
 222 -12 170 61 170 205 c 2
 170 295 l 1x0d8440
 96 309 40 374 40 452 c 0
 40 540 112 612 200 612 c 0
 288 612 360 540 360 452 c 2x0b4040
 360 205 l 2
 360 142 386 108 440 108 c 0
 494 108 530 130 530 130 c 1
 530 560 l 1
 530 560 629 616 780 618 c 1x0d9040
200 512 m 0x0b4040
 167 512 140 485 140 452 c 0
 140 419 167 392 200 392 c 0
 233 392 260 419 260 452 c 0
 260 485 233 512 200 512 c 0x0b4040
600 -48 m 0xa92840
 666 -48 720 -102 720 -168 c 2xa92440
 720 -394 l 1
 560 -394 l 1
 560 -281 l 1
 513 -265 480 -220 480 -168 c 0
 480 -102 534 -48 600 -48 c 0xa92840
990 -48 m 0x5901c0
 1051 -48 1100 -97 1100 -158 c 0
 1100 -178 1095 -197 1085 -213 c 1x9901c0
 1097 -217 1110 -220 1125 -220 c 0
 1202 -219 1242 -157 1260 -98 c 1
 1410 -98 l 1
 1361 -219 1269 -320 1125 -320 c 0
 1023 -320 880 -270 880 -158 c 0
 880 -97 929 -48 990 -48 c 0x5901c0
990 -113 m 0
 965 -113 945 -133 945 -158 c 0
 945 -183 965 -203 990 -203 c 0
 1015 -203 1035 -183 1035 -158 c 0
 1035 -133 1015 -113 990 -113 c 0
600 -123 m 0xa92440
 575 -123 555 -143 555 -168 c 0
 555 -193 575 -213 600 -213 c 0
 625 -213 645 -193 645 -168 c 0
 645 -143 625 -123 600 -123 c 0xa92440
EndSplineSet
Validated: 1
EndChar

StartChar: uni0E01
Encoding: 3585 3585 1
Width: 700
VWidth: 0
Flags: W
HStem: 0 21G<80 270 430 620> 492 120<244.213 399.652>
VStem: 80 190<0 339.278> 430 190<0 458.65>
LayerCount: 2
Fore
SplineSet
270 0 m 1
 80 0 l 1
 80 284 l 2
 80 312 112 355 145 374 c 1
 40 423 l 1
 117 544 200 610 330 612 c 1
 526 612 619 497 620 334 c 1
 620 0 l 1
 430 0 l 1
 430 334 l 2
 430 417 423 492 330 492 c 0
 258 492 225 452 205 431 c 1
 310 379 l 1
 310 379 270 355 270 324 c 2
 270 0 l 1
EndSplineSet
Validated: 1
EndChar

StartChar: uni0E10.descless
Encoding: 63232 63232 3
Width: 580
VWidth: 0
Flags: W
HStem: 94 65<139.488 220.15> 249 65<139.488 219.882> 492 120<226.738 415.272>
VStem: 70 65<163.488 244.512> 330 190<16.9536 56.2682 154 322.287>
LayerCount: 2
Fore
SplineSet
300 612 m 0
 388 612 451 571 480 540 c 1
 502 562 560 590 560 590 c 1
 560 480 l 1
 560 480 534 470 480 420 c 1
 424 476 354 492 300 492 c 0
 246 492 200 456 200 424 c 1
 375 404 520 386 520 284 c 2
 520 21 l 1
 520 21 463 -12 330 -12 c 1
 330 -12 305 70 264 132 c 1
 243 109 213 94 180 94 c 0
 119 94 70 143 70 204 c 0
 70 265 119 314 180 314 c 0
 294 314 330 154 330 154 c 1
 330 291 l 2
 330 356 95 354 10 364 c 1
 10 534 180 612 300 612 c 0
180 249 m 0
 155 249 135 229 135 204 c 0
 135 179 155 159 180 159 c 0
 205 159 225 179 225 204 c 0
 225 229 205 249 180 249 c 0
EndSplineSet
Validated: 1
EndChar

StartChar: uni0E0D.descless
Encoding: 63247 63247 4
Width: 1000
VWidth: 0
Flags: W
HStem: -12 120<633.426 729.576> -12 75<164.489 255.511> 492 120<244.213 399.652>
VStem: 80 190<216.095 339.278> 80 75<73.2203 164.242> 265 75<72.4892 164.461> 430 190<121.59 458.65> 730 190<113.552 590>
LayerCount: 2
Fore
SplineSet
330 612 m 1x73
 526 612 619 497 620 334 c 1
 620 200 l 2
 620 137 641 108 675 108 c 0
 709 108 730 130 730 130 c 1
 730 590 l 1
 920 590 l 1
 920 60 l 1
 920 60 827 -12 675 -12 c 0
 523 -12 430 56 430 200 c 2
 430 334 l 2
 430 417 423 492 330 492 c 0
 258 492 225 452 205 431 c 1
 310 379 l 1
 310 379 270 355 270 324 c 2
 270 233 l 1xb3
 312 212 340 168 340 118 c 0
 340 46 282 -12 210 -12 c 0
 138 -12 80 46 80 118 c 2x6f
 80 284 l 2
 80 312 112 355 145 374 c 1
 40 423 l 1
 117 544 200 610 330 612 c 1x73
210 173 m 0
 180 173 155 148 155 118 c 0
 155 88 180 63 210 63 c 0
 240 63 265 88 265 118 c 0x6f
 265 148 240 173 210 173 c 0
EndSplineSet
Validated: 1
EndChar

StartChar: uni0E1A
Encoding: 3610 3610 5
Width: 780
VWidth: 0
Flags: W
HStem: -12 120<359.5 507.377> 512 100<131.832 228.168>
VStem: 20 100<403.092 500.168> 150 190<127.105 301.374> 240 100<403.108 499.443> 510 190<118.485 590>
LayerCount: 2
Fore
SplineSet
180 612 m 0xf4
 268 612 340 540 340 452 c 2xec
 340 205 l 2
 340 142 366 108 420 108 c 0
 474 108 510 130 510 130 c 1
 510 590 l 1
 700 590 l 1
 700 80 l 1
 700 80 628 -12 415 -12 c 0
 202 -12 150 61 150 205 c 2
 150 295 l 1
 76 309 20 374 20 452 c 0
 20 540 92 612 180 612 c 0xf4
180 512 m 0
 147 512 120 485 120 452 c 0
 120 419 147 392 180 392 c 0
 213 392 240 419 240 452 c 0
 240 485 213 512 180 512 c 0
EndSplineSet
Validated: 1
EndChar

StartChar: uni0E38
Encoding: 3640 3640 6
Width: 0
VWidth: 0
Flags: W
HStem: -560 181<-239.598 -159.412> -289 75<-239.485 -160.515>
VStem: -320 75<-374.066 -294.516> -240 160<-560 -435.086> -155 75<-374.588 -295.619>
LayerCount: 2
Back
SplineSet
-200 -54 m 4xf0
 -134 -54 -80 -108 -80 -174 c 2xe8
 -80 -400 l 1
 -240 -400 l 1
 -240 -287 l 1
 -287 -271 -320 -226 -320 -174 c 0
 -320 -108 -266 -54 -200 -54 c 4xf0
-200 -129 m 0
 -225 -129 -245 -149 -245 -174 c 0
 -245 -199 -225 -219 -200 -219 c 0
 -175 -219 -155 -199 -155 -174 c 0
 -155 -149 -175 -129 -200 -129 c 0
EndSplineSet
Fore
SplineSet
-200 -214 m 0xf0
 -134 -214 -80 -268 -80 -334 c 2xe8
 -80 -560 l 1
 -240 -560 l 1
 -240 -447 l 1
 -287 -431 -320 -386 -320 -334 c 0
 -320 -268 -266 -214 -200 -214 c 0xf0
-200 -289 m 0
 -225 -289 -245 -309 -245 -334 c 0
 -245 -359 -225 -379 -200 -379 c 0
 -175 -379 -155 -359 -155 -334 c 0
 -155 -309 -175 -289 -200 -289 c 0
EndSplineSet
Validated: 1
Position2: "Lower Vowel" dx=0 dy=160 dh=0 dv=0
EndChar

StartChar: uni0E40
Encoding: 3648 3648 8
Width: 380
VWidth: 0
Flags: W
HStem: -12 75<164.489 255.511>
VStem: 80 190<216.095 590> 80 75<73.2203 164.242> 265 75<72.4892 164.461>
LayerCount: 2
Fore
SplineSet
80 590 m 1xc0
 270 590 l 1
 270 233 l 1xc0
 312 212 340 168 340 118 c 0
 340 46 282 -12 210 -12 c 0
 138 -12 80 46 80 118 c 2xb0
 80 590 l 1xc0
210 173 m 0
 180 173 155 148 155 118 c 0
 155 88 180 63 210 63 c 0
 240 63 265 88 265 118 c 0xb0
 265 148 240 173 210 173 c 0
EndSplineSet
Validated: 1
EndChar

StartChar: uni0E3A
Encoding: 3642 3642 10
Width: 0
VWidth: 0
Flags: W
HStem: -502 200<-247.147 -112.853>
VStem: -280 200<-469.147 -334.853>
LayerCount: 2
Back
SplineSet
-80 -154 m 0
 -80 -209 -125 -254 -180 -254 c 0
 -235 -254 -280 -209 -280 -154 c 0
 -280 -99 -235 -54 -180 -54 c 4
 -125 -54 -80 -99 -80 -154 c 0
EndSplineSet
Fore
SplineSet
-80 -402 m 0
 -80 -457 -125 -502 -180 -502 c 0
 -235 -502 -280 -457 -280 -402 c 0
 -280 -347 -235 -302 -180 -302 c 0
 -125 -302 -80 -347 -80 -402 c 0
EndSplineSet
Validated: 1
Position2: "Lower Vowel" dx=0 dy=240 dh=0 dv=0
EndChar

StartChar: uni0E34
Encoding: 3636 3636 11
Width: 0
VWidth: 0
Flags: W
HStem: 690 60<-535 -295> 812 100<-506.028 -338.445>
LayerCount: 2
Back
SplineSet
-630 690 m 5
 -630 807 -548 912 -385 912 c 5
 -245 907 -149 811 -100 690 c 5
 -630 690 l 5
-385 812 m 4
 -436 812 -468 782 -485 750 c 5
 -245 750 l 5
 -283 788 -319 812 -385 812 c 4
EndSplineSet
Fore
SplineSet
-680 690 m 1
 -680 807 -598 912 -435 912 c 1
 -295 907 -199 811 -150 690 c 1
 -680 690 l 1
-435 812 m 0
 -486 812 -518 782 -535 750 c 1
 -295 750 l 1
 -333 788 -369 812 -435 812 c 0
EndSplineSet
Validated: 1
Position2: "Left Upper Vowel" dx=-150 dy=0 dh=0 dv=0
Position2: "Normal Upper Vowel" dx=50 dy=0 dh=0 dv=0
EndChar

StartChar: uni0E1B
Encoding: 3611 3611 12
Width: 780
VWidth: 0
Flags: W
HStem: -12 120<359.5 507.377> 512 100<131.832 228.168>
VStem: 20 100<403.092 500.168> 150 190<127.105 301.374> 240 100<403.108 499.443> 510 190<118.485 860>
LayerCount: 2
Fore
SplineSet
180 612 m 0xf4
 268 612 340 540 340 452 c 2xec
 340 205 l 2
 340 142 366 108 420 108 c 0
 474 108 510 130 510 130 c 1
 510 860 l 1
 700 860 l 1
 700 60 l 1
 700 60 628 -12 415 -12 c 0
 202 -12 150 61 150 205 c 2
 150 295 l 1
 76 309 20 374 20 452 c 0
 20 540 92 612 180 612 c 0xf4
180 512 m 0
 147 512 120 485 120 452 c 0
 120 419 147 392 180 392 c 0
 213 392 240 419 240 452 c 0
 240 485 213 512 180 512 c 0
EndSplineSet
Validated: 1
EndChar

StartChar: uni0E35
Encoding: 3637 3637 13
Width: 0
VWidth: 0
Flags: W
HStem: 690 60<-535 -295> 812 100<-506.028 -338.599>
LayerCount: 2
Back
SplineSet
-260 950 m 5
 -100 950 l 5
 -100 690 l 5
 -100 690 -453 690 -630 690 c 5
 -630 807 -548 912 -385 912 c 5
 -299 909 -230 872 -178 816 c 5
 -260 950 l 5
-385 812 m 4
 -436 812 -468 782 -485 750 c 5
 -245 750 l 5
 -283 788 -319 812 -385 812 c 4
EndSplineSet
Fore
SplineSet
-310 950 m 1
 -150 950 l 1
 -150 690 l 1
 -150 690 -503 690 -680 690 c 1
 -680 807 -598 912 -435 912 c 1
 -349 909 -280 872 -228 816 c 1
 -310 950 l 1
-435 812 m 0
 -486 812 -518 782 -535 750 c 1
 -295 750 l 1
 -333 788 -369 812 -435 812 c 0
EndSplineSet
Validated: 1
Position2: "Left Upper Vowel" dx=-150 dy=0 dh=0 dv=0
Position2: "Normal Upper Vowel" dx=50 dy=0 dh=0 dv=0
EndChar

StartChar: uni0E48
Encoding: 3656 3656 14
Width: 0
VWidth: 0
Flags: W
HStem: 1000 250<-300 -150>
VStem: -300 150<1000 1250>
LayerCount: 2
Back
SplineSet
-250 940 m 5
 -100 940 l 5
 -100 690 l 5
 -250 690 l 5
 -250 940 l 5
EndSplineSet
Fore
SplineSet
-300 1250 m 1
 -150 1250 l 1
 -150 1000 l 1
 -300 1000 l 1
 -300 1250 l 1
EndSplineSet
Validated: 1
Position2: "Left-Low Tone" dx=-200 dy=-310 dh=0 dv=0
Position2: "Left-High Tone" dx=-150 dy=0 dh=0 dv=0
Position2: "High Tone" dx=50 dy=0 dh=0 dv=0
Position2: "Low Tone" dx=50 dy=-310 dh=0 dv=0
EndChar

StartChar: uni0E31
Encoding: 3633 3633 15
Width: 0
VWidth: 0
Flags: W
HStem: 690 100<-354.625 -240.195> 897 65<-490.512 -409.488>
VStem: -560 65<812.148 892.512> -405 65<811.29 892.512> -180 160<849.304 922>
LayerCount: 2
Back
SplineSet
-350 962 m 4
 -289 962 -240 913 -240 852 c 4
 -240 832 -245 813 -255 797 c 5
 -243 793 -230 790 -215 790 c 4
 -138 791 -83 857 -80 922 c 5
 80 922 l 5
 77 782 -71 690 -215 690 c 4
 -317 690 -460 740 -460 852 c 4
 -460 913 -411 962 -350 962 c 4
-350 897 m 4
 -375 897 -395 877 -395 852 c 4
 -395 827 -375 807 -350 807 c 4
 -325 807 -305 827 -305 852 c 4
 -305 877 -325 897 -350 897 c 4
EndSplineSet
Fore
SplineSet
-450 962 m 0
 -389 962 -340 913 -340 852 c 0
 -340 832 -345 813 -355 797 c 1
 -343 793 -330 790 -315 790 c 0
 -238 791 -183 857 -180 922 c 1
 -20 922 l 1
 -23 782 -171 690 -315 690 c 0
 -417 690 -560 740 -560 852 c 0
 -560 913 -511 962 -450 962 c 0
-450 897 m 0
 -475 897 -495 877 -495 852 c 0
 -495 827 -475 807 -450 807 c 0
 -425 807 -405 827 -405 852 c 0
 -405 877 -425 897 -450 897 c 0
EndSplineSet
Validated: 1
Position2: "Left Upper Vowel" dx=-150 dy=0 dh=0 dv=0
Position2: "Normal Upper Vowel" dx=100 dy=0 dh=0 dv=0
EndChar

StartChar: uni0E4B
Encoding: 3659 3659 16
Width: 0
VWidth: 0
Flags: W
HStem: 1000 250<-300 -150> 1085 80<-385 -300 -150 -65>
VStem: -300 150<1000 1085 1165 1250>
LayerCount: 2
Back
SplineSet
-250 940 m 1xa0
 -100 940 l 1xa0
 -100 855 l 1
 -15 855 l 1
 -15 775 l 1
 -100 775 l 1x60
 -100 690 l 5
 -250 690 l 5xa0
 -250 775 l 1
 -335 775 l 1
 -335 855 l 1
 -250 855 l 1x60
 -250 940 l 1xa0
EndSplineSet
Fore
SplineSet
-300 1250 m 1xa0
 -150 1250 l 1xa0
 -150 1165 l 1
 -65 1165 l 1
 -65 1085 l 1
 -150 1085 l 1x60
 -150 1000 l 1
 -300 1000 l 1xa0
 -300 1085 l 1
 -385 1085 l 1
 -385 1165 l 1
 -300 1165 l 1x60
 -300 1250 l 1xa0
EndSplineSet
Validated: 1
Position2: "Left-Low Tone" dx=-250 dy=-310 dh=0 dv=0
Position2: "Left-High Tone" dx=-150 dy=0 dh=0 dv=0
Position2: "High Tone" dx=50 dy=0 dh=0 dv=0
Position2: "Low Tone" dx=50 dy=-310 dh=0 dv=0
EndChar

StartChar: uni0E37
Encoding: 3639 3639 17
Width: 0
VWidth: 0
Flags: W
HStem: 690 60<-535 -298> 812 100<-506.028 -369.381>
VStem: -250 100<840 950>
LayerCount: 2
Back
SplineSet
-630 690 m 5
 -630 807 -548 912 -385 912 c 4
 -361 911 -339 908 -318 902 c 5
 -375 950 l 5
 -240 950 l 5
 -240 870 l 5
 -200 840 l 5
 -200 950 l 5
 -100 950 l 5
 -100 690 l 5
 -630 690 l 5
-385 812 m 4
 -436 812 -468 782 -485 750 c 5
 -248 750 l 5
 -250 755 l 5
 -286 790 -322 812 -385 812 c 4
EndSplineSet
Fore
SplineSet
-680 690 m 1
 -680 807 -598 912 -435 912 c 0
 -411 911 -389 908 -368 902 c 1
 -425 950 l 1
 -290 950 l 1
 -290 870 l 1
 -250 840 l 1
 -250 950 l 1
 -150 950 l 1
 -150 690 l 1
 -680 690 l 1
-435 812 m 0
 -486 812 -518 782 -535 750 c 1
 -298 750 l 1
 -300 755 l 1
 -336 790 -372 812 -435 812 c 0
EndSplineSet
Validated: 1
Position2: "Left Upper Vowel" dx=-150 dy=0 dh=0 dv=0
Position2: "Normal Upper Vowel" dx=50 dy=0 dh=0 dv=0
EndChar

StartChar: uni0E36
Encoding: 3638 3638 18
Width: 0
VWidth: 0
Flags: W
HStem: 690 117<-279.61 -198.605> 690 60<-534 -294> 812 100<-505.59 -339.977> 897 65<-279.155 -199.084>
VStem: -680 396<690 852> -194 64<812.054 892.512>
LayerCount: 2
Back
SplineSet
-180 962 m 4x1c
 -119 962 -70 913 -70 852 c 4
 -70 812 -91 776 -123 757 c 5
 -110 736 -99 713 -90 690 c 5
 -620 690 l 5
 -620 807 -538 912 -374 912 c 5x6c
 -341 911 -310 904 -281 893 c 5
 -265 934 -226 962 -180 962 c 4x1c
-180 897 m 4x9c
 -204 897 -224 877 -224 852 c 4
 -224 827 -204 807 -180 807 c 4
 -155 807 -134 827 -134 852 c 4
 -134 877 -155 897 -180 897 c 4x9c
-374 812 m 4x6c
 -426 812 -458 782 -474 750 c 5
 -234 750 l 5
 -272 788 -308 812 -374 812 c 4x6c
EndSplineSet
Fore
SplineSet
-240 962 m 0x1c
 -179 962 -130 913 -130 852 c 0
 -130 812 -151 776 -183 757 c 1
 -170 736 -159 713 -150 690 c 1
 -680 690 l 1
 -680 807 -598 912 -434 912 c 1x6c
 -401 911 -370 904 -341 893 c 1
 -325 934 -286 962 -240 962 c 0x1c
-240 897 m 0x9c
 -264 897 -284 877 -284 852 c 0
 -284 827 -264 807 -240 807 c 0
 -215 807 -194 827 -194 852 c 0
 -194 877 -215 897 -240 897 c 0x9c
-434 812 m 0x6c
 -486 812 -518 782 -534 750 c 1
 -294 750 l 1
 -332 788 -368 812 -434 812 c 0x6c
EndSplineSet
Validated: 1
Position2: "Left Upper Vowel" dx=-150 dy=0 dh=0 dv=0
Position2: "Normal Upper Vowel" dx=50 dy=0 dh=0 dv=0
EndChar

StartChar: uni0E03
Encoding: 3587 3587 19
Width: 700
VWidth: 0
Flags: W
HStem: -12 120<339.028 428.245> 287 65<103.321 182.788> 442 65<103.301 183.012>
VStem: 20 78<356.639 482.837> 140 190<116.248 233.657> 188 64<357.345 436.655> 301 100<370.648 512.547> 430 190<110.783 590>
LayerCount: 2
Fore
SplineSet
135 612 m 1xf5
 205 560 l 1
 275 612 l 1
 275 612 401 552 401 410 c 0xf7
 401 301 330 245 330 170 c 0
 330 133 351 108 380 108 c 0
 409 108 430 120 430 120 c 1
 430 590 l 1
 620 590 l 1
 620 80 l 1
 620 80 528 -12 380 -12 c 0
 232 -12 140 34 140 140 c 2
 140 170 l 2xf9
 140 256 301 337 301 448 c 0xf3
 301 524 268 546 268 546 c 1
 205 500 l 1
 140 546 l 1xf9
 140 546 111 528 103 500 c 1
 114 505 131 507 142 507 c 0
 203 507 252 460 252 397 c 0
 252 334 203 287 141 287 c 0
 79 287 20 327 20 420 c 0
 20 573 135 612 135 612 c 1xf5
143 442 m 0
 119 442 98 422 98 397 c 0
 98 372 119 352 143 352 c 0
 168 352 188 372 188 397 c 0
 188 422 168 442 143 442 c 0
EndSplineSet
Validated: 1
EndChar

StartChar: uni0E0D
Encoding: 3597 3597 20
Width: 1000
VWidth: 0
Flags: W
HStem: -301 100<626.354 740.556> -94 65<490.183 571.207> -12 75<164.489 255.511> -12 120<633.426 729.576> 492 120<244.213 399.652>
VStem: 80 75<73.2203 164.242> 80 190<216.095 339.278> 265 75<72.4892 164.461> 420 66<-179.082 -98.2578> 430 190<121.59 458.65> 576 64<-179.71 -98.4878> 730 190<113.552 590> 800 160<-141.696 -69>
LayerCount: 2
Fore
SplineSet
530 -29 m 0xc8a8
 592 -29 640 -78 640 -139 c 0
 640 -159 636 -178 626 -194 c 1
 638 -198 650 -201 666 -201 c 0
 742 -200 798 -134 800 -69 c 1
 960 -69 l 1
 958 -209 810 -301 666 -301 c 0
 564 -301 420 -251 420 -139 c 0
 420 -78 470 -29 530 -29 c 0xc8a8
530 -94 m 0
 506 -94 486 -114 486 -139 c 0
 486 -164 506 -184 530 -184 c 0
 556 -184 576 -164 576 -139 c 0
 576 -114 556 -94 530 -94 c 0
EndSplineSet
Refer: 4 63247 N 1 0 0 1 0 0 2
Validated: 1
Substitution2: "Thai Descent Remove" uni0E0D.descless
EndChar

StartChar: uni0E02
Encoding: 3586 3586 21
Width: 690
VWidth: 0
Flags: W
HStem: -12 120<329.028 418.245> 307 70<113.321 192.788> 467 65<152 192.437> 548 64<153.208 259.423>
VStem: 30 78<382.808 461.571> 130 190<116.248 233.657> 198 64<382.038 461.655> 291 100<370.648 514.564> 420 190<110.783 590>
LayerCount: 2
Fore
SplineSet
200 612 m 0xfb80
 340 612 391 519 391 410 c 0xfb80
 391 301 320 245 320 170 c 0
 320 133 341 108 370 108 c 0
 399 108 420 120 420 120 c 1
 420 590 l 1
 610 590 l 1
 610 80 l 1
 610 80 518 -12 370 -12 c 0
 222 -12 130 34 130 140 c 2
 130 170 l 2xfc80
 130 256 291 337 291 448 c 0
 291 510 242 546 200 548 c 1
 178 548 165 543 152 532 c 1
 213 532 262 485 262 422 c 0
 262 359 213 307 151 307 c 0
 89 307 30 352 30 445 c 0
 30 528 95 612 200 612 c 0xfb80
153 467 m 0
 129 467 108 447 108 422 c 0
 108 397 129 377 153 377 c 0
 178 377 198 397 198 422 c 0
 198 447 178 467 153 467 c 0
EndSplineSet
Validated: 1
EndChar

StartChar: uni0E0B
Encoding: 3595 3595 22
Width: 700
VWidth: 0
Flags: W
HStem: -12 120<339.028 428.245> 287 65<103.321 182.788> 442 65<103.301 183.012> 496 164<540.832 640>
VStem: 20 78<356.639 482.837> 140 190<116.248 233.642> 188 64<357.345 436.655> 430 190<110.783 352.686>
LayerCount: 2
Fore
SplineSet
640 660 m 1xdb
 640 496 l 1xdb
 514 496 480 436 480 436 c 1
 480 436 620 373 620 294 c 2
 620 80 l 1
 620 80 528 -12 380 -12 c 0
 232 -12 140 34 140 140 c 2
 140 170 l 2
 140 256 301 337 301 448 c 0
 301 524 268 546 268 546 c 1
 205 500 l 1
 140 546 l 1
 140 546 111 528 103 500 c 1
 114 505 131 507 142 507 c 0xed
 203 507 252 460 252 397 c 0
 252 334 203 287 141 287 c 0
 79 287 20 327 20 420 c 0
 20 573 135 612 135 612 c 1
 205 560 l 1
 275 612 l 1
 275 612 360 572 390 479 c 1
 412 558 477 638 640 660 c 1xdb
143 442 m 0xeb
 119 442 98 422 98 397 c 0
 98 372 119 352 143 352 c 0
 168 352 188 372 188 397 c 0
 188 422 168 442 143 442 c 0xeb
399 379 m 1
 388 290 330 238 330 170 c 0xcd
 330 133 351 108 380 108 c 0
 409 108 430 120 430 120 c 1
 430 294 l 2
 430 327 413 361 399 379 c 1
EndSplineSet
Validated: 1
EndChar

StartChar: uni0E0A
Encoding: 3594 3594 23
Width: 690
VWidth: 0
Flags: W
HStem: -12 120<329.028 417.824> 307 70<113.321 192.788> 467 65<152 192.437> 496 164<527.168 630> 548 64<153.208 259.252>
VStem: 30 78<382.808 461.571> 130 190<116.248 233.642> 198 64<382.038 461.655> 420 190<110.783 355.814>
LayerCount: 2
Fore
SplineSet
630 660 m 1xd580
 630 496 l 1
 504 496 480 436 480 436 c 1
 480 436 610 373 610 294 c 2
 610 100 l 1
 610 100 542 -12 370 -12 c 0
 222 -12 130 34 130 140 c 2
 130 170 l 2xd680
 130 256 291 337 291 448 c 0
 291 510 242 546 200 548 c 1
 178 548 165 543 152 532 c 1
 213 532 262 485 262 422 c 0
 262 359 213 307 151 307 c 0
 89 307 30 352 30 445 c 0
 30 528 95 612 200 612 c 0xed80
 307 612 362 558 382 484 c 1
 405 561 470 638 630 660 c 1xd580
153 467 m 0xe580
 129 467 108 447 108 422 c 0
 108 397 129 377 153 377 c 0
 178 377 198 397 198 422 c 0
 198 447 178 467 153 467 c 0xe580
389 379 m 1
 378 290 320 238 320 170 c 0xc680
 320 133 341 108 370 108 c 0
 399 108 420 120 420 120 c 1
 420 294 l 2
 420 327 403 361 389 379 c 1
EndSplineSet
Validated: 1
EndChar

StartChar: uni0E49
Encoding: 3657 3657 24
Width: 0
VWidth: 0
Flags: W
HStem: 988 152<-407.455 -233.219> 988 100<-319 -250.765> 1220 60<-417.068 -342.932>
VStem: -480 60<1142.96 1217.07> -340 60<1142.79 1217.07> -170 150<1176.06 1258>
LayerCount: 2
Back
SplineSet
-300 970 m 4xbc
 -245 970 -200 925 -200 870 c 4
 -200 823 -220 796 -239 778 c 5x7c
 -163 778 -90 876 -90 948 c 5
 60 948 l 5
 60 853 -44 678 -265 678 c 4
 -305 678 -358 687 -400 704 c 5
 -375 718 -346 746 -328 774 c 5
 -369 786 -400 824 -400 870 c 4
 -400 925 -355 970 -300 970 c 4xbc
-300 910 m 4
 -322 910 -340 892 -340 870 c 4
 -340 848 -322 830 -300 830 c 4xbc
 -278 830 -260 848 -260 870 c 4
 -260 892 -278 910 -300 910 c 4
EndSplineSet
Fore
SplineSet
-380 1280 m 0xbc
 -325 1280 -280 1235 -280 1180 c 0
 -280 1133 -300 1106 -319 1088 c 1x7c
 -243 1088 -170 1186 -170 1258 c 1
 -20 1258 l 1
 -20 1163 -124 988 -345 988 c 0
 -385 988 -438 997 -480 1014 c 1
 -455 1028 -426 1056 -408 1084 c 1
 -449 1096 -480 1134 -480 1180 c 0
 -480 1235 -435 1280 -380 1280 c 0xbc
-380 1220 m 0
 -402 1220 -420 1202 -420 1180 c 0
 -420 1158 -402 1140 -380 1140 c 0xbc
 -358 1140 -340 1158 -340 1180 c 0
 -340 1202 -358 1220 -380 1220 c 0
EndSplineSet
Validated: 1
Position2: "Left-Low Tone" dx=-250 dy=-310 dh=0 dv=0
Position2: "Left-High Tone" dx=-80 dy=0 dh=0 dv=0
Position2: "High Tone" dx=100 dy=0 dh=0 dv=0
Position2: "Low Tone" dx=100 dy=-310 dh=0 dv=0
EndChar

StartChar: uni0E16
Encoding: 3606 3606 25
Width: 700
VWidth: 0
Flags: W
HStem: -12 75<164.489 255.511> 0 21G<430 620> 492 120<244.213 399.652>
VStem: 80 190<216.095 339.278> 80 75<73.2203 164.242> 265 75<72.4892 164.461> 430 190<0 458.65>
LayerCount: 2
Back
SplineSet
332 618 m 5xb6
 528 618 619 504 620 341 c 5
 620 0 l 5
 440 0 l 5
 440 341 l 6
 440 424 425 498 332 498 c 4
 260 498 205 458 185 437 c 5
 260 400 l 5
 260 238 l 5x76
 307 218 340 172 340 118 c 4
 340 46 282 -12 210 -12 c 4
 138 -12 80 46 80 118 c 6xae
 80 290 l 6
 80 318 92 361 125 380 c 5
 20 429 l 5
 97 550 202 616 332 618 c 5xb6
210 173 m 4
 180 173 155 148 155 118 c 4
 155 88 180 63 210 63 c 4xae
 240 63 265 88 265 118 c 4
 265 148 240 173 210 173 c 4
EndSplineSet
Fore
SplineSet
330 612 m 1xb2
 526 612 619 497 620 334 c 1
 620 0 l 1
 430 0 l 1
 430 334 l 2
 430 417 423 492 330 492 c 0
 258 492 225 452 205 431 c 1
 310 379 l 1
 310 379 270 355 270 324 c 2
 270 233 l 1x72
 312 212 340 168 340 118 c 0
 340 46 282 -12 210 -12 c 0
 138 -12 80 46 80 118 c 2xae
 80 284 l 2
 80 312 112 355 145 374 c 1
 40 423 l 1
 117 544 200 610 330 612 c 1xb2
210 173 m 0
 180 173 155 148 155 118 c 0
 155 88 180 63 210 63 c 0
 240 63 265 88 265 118 c 0xae
 265 148 240 173 210 173 c 0
EndSplineSet
Validated: 1
EndChar

StartChar: uni0E21
Encoding: 3617 3617 27
Width: 700
VWidth: 0
Flags: W
HStem: -12 90<128.642 221.358> 188 224<130.252 221.242> 522 90<128.642 221.358>
VStem: 30 90<86.6419 179.066 420.934 513.358> 130 190<259.56 340.44> 230 90<86.758 133 420.758 513.242> 430 190<170 590>
CounterMasks: 1 e0
LayerCount: 2
Back
SplineSet
155 612 m 4xfa
 235 612 300 547 300 467 c 6
 300 253 l 5
 353 224 388 197 410 170 c 5
 410 590 l 5
 600 590 l 5
 600 28 l 5
 600 28 513 -3 430 -12 c 5
 430 -12 381 95 300 133 c 5xf6
 300 53 235 -12 155 -12 c 4
 75 -12 10 53 10 133 c 4
 10 197 52 252 110 271 c 5
 110 329 l 5
 52 348 10 403 10 467 c 4
 10 547 75 612 155 612 c 4xfa
155 522 m 4
 125 522 100 497 100 467 c 4
 100 437 125 412 155 412 c 4
 185 412 210 437 210 467 c 4
 210 497 185 522 155 522 c 4
155 188 m 4
 125 188 100 163 100 133 c 4
 100 103 125 78 155 78 c 4
 185 78 210 103 210 133 c 4
 210 163 185 188 155 188 c 4
EndSplineSet
Fore
SplineSet
175 612 m 0xfa
 255 612 320 547 320 467 c 2
 320 253 l 1
 373 224 408 197 430 170 c 1
 430 590 l 1
 620 590 l 1
 620 28 l 1
 620 28 533 -3 450 -12 c 1
 450 -12 401 95 320 133 c 1xf6
 320 53 255 -12 175 -12 c 0
 95 -12 30 53 30 133 c 0
 30 197 72 252 130 271 c 1
 130 329 l 1
 72 348 30 403 30 467 c 0
 30 547 95 612 175 612 c 0xfa
175 522 m 0
 145 522 120 497 120 467 c 0
 120 437 145 412 175 412 c 0
 205 412 230 437 230 467 c 0
 230 497 205 522 175 522 c 0
175 188 m 0
 145 188 120 163 120 133 c 0
 120 103 145 78 175 78 c 0
 205 78 230 103 230 133 c 0
 230 163 205 188 175 188 c 0
EndSplineSet
Validated: 1
EndChar

StartChar: uni0E06
Encoding: 3590 3590 28
Width: 710
VWidth: 0
Flags: W
HStem: -12 90<138.642 231.358> 188 90<138.642 211.758> 293 65<103.321 182.788> 448 65<103.301 183.012>
VStem: 20 78<362.639 488.201> 40 90<86.6419 179.358> 188 64<363.345 442.655> 240 90<86.758 133> 301 100<368.523 512.547> 440 190<176 590>
LayerCount: 2
Fore
SplineSet
135 612 m 1xfac0
 205 560 l 1
 275 612 l 1
 275 612 401 552 401 410 c 0xfac0
 401 338 370 289 349 242 c 1
 391 217 421 200 440 176 c 1
 440 590 l 1
 630 590 l 1
 630 34 l 1
 630 34 543 3 460 -6 c 1
 460 -6 411 95 330 133 c 1
 330 53 265 -12 185 -12 c 0
 105 -12 40 53 40 133 c 0xf540
 40 213 105 278 185 278 c 0
 190 278 195 278 200 277 c 1
 246 329 301 383 301 448 c 0
 301 524 268 546 268 546 c 1
 205 500 l 1
 140 546 l 1
 140 546 111 534 103 506 c 1
 114 511 131 513 142 513 c 0
 203 513 252 466 252 403 c 0
 252 340 203 293 141 293 c 0
 79 293 20 333 20 426 c 0
 20 579 135 612 135 612 c 1xfac0
143 448 m 0
 119 448 98 428 98 403 c 0
 98 378 119 358 143 358 c 0
 168 358 188 378 188 403 c 0
 188 428 168 448 143 448 c 0
185 188 m 0
 155 188 130 163 130 133 c 0
 130 103 155 78 185 78 c 0
 215 78 240 103 240 133 c 0xf540
 240 163 215 188 185 188 c 0
EndSplineSet
Validated: 1
EndChar

StartChar: uni0E4C
Encoding: 3660 3660 29
Width: 0
VWidth: 0
Flags: W
HStem: 928 65<-379.868 -299.488>
VStem: -460 75<997.488 1078.22> -295 65<997.488 1078.27> -240 140<1205.25 1280>
LayerCount: 2
Back
SplineSet
-140 1030 m 1xd0
 0 1030 l 1xd0
 0 905 -65 863 -163 862 c 1
 -150 850 -130 827 -130 788 c 0xe0
 -130 727 -179 678 -240 678 c 4
 -301 678 -360 727 -360 788 c 0
 -360 842 -330 895 -246 918 c 0
 -162 940 -140 967 -140 1030 c 1xd0
-240 833 m 0
 -265 833 -285 813 -285 788 c 0
 -285 763 -265 743 -240 743 c 0
 -215 743 -195 763 -195 788 c 0xe0
 -195 813 -215 833 -240 833 c 0
EndSplineSet
Fore
SplineSet
-240 1280 m 1xd0
 -100 1280 l 1xd0
 -100 1155 -165 1113 -263 1112 c 1
 -250 1100 -230 1077 -230 1038 c 0xe0
 -230 977 -279 928 -340 928 c 0
 -401 928 -460 977 -460 1038 c 0
 -460 1092 -430 1145 -346 1168 c 0
 -262 1190 -240 1217 -240 1280 c 1xd0
-340 1083 m 0
 -365 1083 -385 1063 -385 1038 c 0
 -385 1013 -365 993 -340 993 c 0
 -315 993 -295 1013 -295 1038 c 0xe0
 -295 1063 -315 1083 -340 1083 c 0
EndSplineSet
Validated: 1
Position2: "Left-Low Tone" dx=-150 dy=-240 dh=0 dv=0
Position2: "Left-High Tone" dx=-100 dy=10 dh=0 dv=0
Position2: "High Tone" dx=100 dy=10 dh=0 dv=0
Position2: "Low Tone" dx=100 dy=-240 dh=0 dv=0
EndChar

StartChar: uni0E19
Encoding: 3609 3609 31
Width: 720
VWidth: 0
Flags: W
HStem: -12 90<488.735 581.358> 522 90<128.642 221.358>
VStem: 30 90<420.934 513.358> 130 190<170 340.44> 230 90<420.758 513.242> 450 190<255 590> 590 90<86.6419 178.887>
LayerCount: 2
Back
SplineSet
330 170 m 5xf0
 330 170 375 235 460 264 c 5
 460 590 l 5
 650 590 l 5
 650 255 l 5xf4
 634 247 l 5
 668 221 690 179 690 133 c 4
 690 53 625 -12 545 -12 c 4
 471 -12 410 43 401 115 c 5
 339 59 300 -12 300 -12 c 5
 156 -12 140 61 140 205 c 6
 140 295 l 5xf2
 66 309 10 374 10 452 c 4
 10 540 82 612 170 612 c 4
 258 612 330 540 330 452 c 6xe8
 330 170 l 5xf0
170 512 m 4
 137 512 110 485 110 452 c 4
 110 419 137 392 170 392 c 4
 203 392 230 419 230 452 c 4xe8
 230 485 203 512 170 512 c 4
545 188 m 4
 515 188 490 163 490 133 c 4
 490 103 515 78 545 78 c 4
 575 78 600 103 600 133 c 4xe2
 600 163 575 188 545 188 c 4
EndSplineSet
Fore
SplineSet
175 612 m 0xf2
 255 612 320 547 320 467 c 0xe8
 320 368 320 269 320 170 c 1
 320 170 365 235 450 264 c 1
 450 590 l 1
 640 590 l 1
 640 255 l 1xf4
 624 247 l 1
 658 221 680 179 680 133 c 0
 680 53 615 -12 535 -12 c 0
 461 -12 400 43 391 115 c 1
 329 59 290 -12 290 -12 c 1
 146 -12 130 61 130 205 c 2
 130 329 l 1
 72 348 30 403 30 467 c 0
 30 547 95 612 175 612 c 0xf2
175 522 m 0
 145 522 120 497 120 467 c 0
 120 437 145 412 175 412 c 0
 205 412 230 437 230 467 c 0
 230 497 205 522 175 522 c 0
535 188 m 0
 505 188 480 163 480 133 c 0
 480 103 505 78 535 78 c 0
 565 78 590 103 590 133 c 0xe2
 590 163 565 188 535 188 c 0
EndSplineSet
Validated: 1
EndChar

StartChar: uni0E2B
Encoding: 3627 3627 32
Width: 720
VWidth: 0
Flags: W
HStem: 0 21G<130 320 450 640> 522 90<128.642 221.358> 537 75<484.489 575.511>
VStem: 30 90<420.934 513.358> 130 190<0 153.597 288 340.44> 230 90<420.758 513.242> 400 75<436.043 527.511> 450 190<0 298> 585 75<436.039 527.511>
LayerCount: 2
Fore
SplineSet
175 612 m 0xd9
 255 612 320 547 320 467 c 2xd4
 320 288 l 1
 332 319 396 378 430 400 c 1
 412 422 400 451 400 482 c 0
 400 554 458 612 530 612 c 0
 602 612 660 554 660 482 c 0xba80
 660 441 640 404 610 380 c 1
 640 360 l 1
 640 0 l 1
 450 0 l 1
 450 298 l 1
 417 272 320 155 320 50 c 2
 320 0 l 1
 130 0 l 1
 130 329 l 1
 72 348 30 403 30 467 c 0
 30 547 95 612 175 612 c 0xd9
530 537 m 0xb280
 500 537 475 512 475 482 c 0
 475 452 500 427 530 427 c 0
 560 427 585 452 585 482 c 0
 585 512 560 537 530 537 c 0xb280
175 522 m 0xd4
 145 522 120 497 120 467 c 0
 120 437 145 412 175 412 c 0
 205 412 230 437 230 467 c 0
 230 497 205 522 175 522 c 0xd4
EndSplineSet
Validated: 1
EndChar

StartChar: uni0E23
Encoding: 3619 3619 33
Width: 630
VWidth: 0
Flags: W
HStem: -12 75<314.489 405.511> 492 120<236.738 425.272>
VStem: 230 75<72.4892 164.461> 300 190<216.095 322.287> 415 75<73.2203 164.242>
LayerCount: 2
Fore
SplineSet
310 612 m 0xd0
 398 612 461 571 490 540 c 1
 512 562 570 590 570 590 c 1
 570 480 l 1
 570 480 544 470 490 420 c 1xc8
 434 476 364 492 310 492 c 0
 256 492 210 456 210 424 c 1
 385 404 490 386 490 284 c 2xd0
 490 118 l 2
 490 46 432 -12 360 -12 c 0
 288 -12 230 46 230 118 c 0xe8
 230 168 258 212 300 233 c 1
 300 291 l 2
 300 356 105 354 20 364 c 1
 20 534 190 612 310 612 c 0xd0
360 173 m 0
 330 173 305 148 305 118 c 0xe8
 305 88 330 63 360 63 c 0
 390 63 415 88 415 118 c 0
 415 148 390 173 360 173 c 0
EndSplineSet
Validated: 1
EndChar

StartChar: uni0E4A
Encoding: 3658 3658 35
Width: 0
VWidth: 0
Flags: W
HStem: 988 50<-468.588 -394.925> 1118 50<-442.457 -395.719>
VStem: -540 97<1166.14 1212.06> -540 68<1042.15 1115.56> -392 50<1040.81 1114.76> -290 99<1097.85 1213.91> -155 135<1124.27 1260>
LayerCount: 2
Back
SplineSet
-310 957 m 1xde
 -250 913 l 1
 -190 957 l 1
 -113 957 -71 882 -71 821 c 0
 -71 809 -73 797 -76 787 c 1
 -47 825 -35 884 -35 950 c 1
 100 950 l 1
 100 729 -14 678 -217 678 c 5
 -186 722 -170 767 -170 811 c 0
 -170 843 -178 874 -195 905 c 1
 -250 863 l 1
 -310 905 l 1
 -310 905 -323 886 -323 866 c 0xee
 -323 863 -323 859 -322 856 c 1
 -322 856 -317 858 -312 858 c 0
 -261 858 -222 816 -222 768 c 0
 -222 718 -262 678 -312 678 c 4
 -383 678 -420 729 -420 808 c 1
 -420 809 -420 809 -420 810 c 0
 -420 881 -373 957 -310 957 c 1xde
-312 808 m 0
 -334 808 -352 790 -352 768 c 0xde
 -352 746 -334 728 -312 728 c 0
 -289 728 -272 746 -272 768 c 0
 -272 790 -289 808 -312 808 c 0
EndSplineSet
Fore
SplineSet
-430 1267 m 1xde
 -370 1223 l 1
 -310 1267 l 1
 -233 1267 -191 1192 -191 1131 c 0
 -191 1119 -193 1107 -196 1097 c 1
 -167 1135 -155 1194 -155 1260 c 1
 -20 1260 l 1
 -20 1039 -134 988 -337 988 c 1
 -306 1032 -290 1077 -290 1121 c 0
 -290 1153 -298 1184 -315 1215 c 1
 -370 1173 l 1
 -430 1215 l 1
 -430 1215 -443 1196 -443 1176 c 0xee
 -443 1173 -443 1169 -442 1166 c 1
 -442 1166 -437 1168 -432 1168 c 0
 -381 1168 -342 1126 -342 1078 c 0
 -342 1028 -382 988 -432 988 c 0
 -503 988 -540 1039 -540 1118 c 1
 -540 1119 -540 1119 -540 1120 c 0
 -540 1191 -493 1267 -430 1267 c 1xde
-432 1118 m 0
 -454 1118 -472 1100 -472 1078 c 0xde
 -472 1056 -454 1038 -432 1038 c 0
 -409 1038 -392 1056 -392 1078 c 0
 -392 1100 -409 1118 -432 1118 c 0
EndSplineSet
Validated: 1
Position2: "Left-Low Tone" dx=-250 dy=-310 dh=0 dv=0
Position2: "Left-High Tone" dx=-100 dy=0 dh=0 dv=0
Position2: "High Tone" dx=100 dy=0 dh=0 dv=0
Position2: "Low Tone" dx=100 dy=-310 dh=0 dv=0
EndChar

StartChar: uni0E47
Encoding: 3655 3655 36
Width: 0
VWidth: 0
Flags: W
HStem: 674 60<-296.502 -222.545> 680 85<-550.227 -518> 814 50<-296 -224> 885 75<-507.418 -303.575> 900 85<-548.298 -374.482>
VStem: -680 120<771.466 888.724> -350 50<762.072 810> -250 130<1013.5 1090> -220 50<738.116 810>
LayerCount: 2
Back
SplineSet
-50 1090 m 5x37
 -50 949 -175 885 -297 885 c 4x37
 -360 885 -371 900 -434 900 c 4
 -459 900 -490 879 -490 835 c 4
 -490 792 -469 765 -448 765 c 5x6f
 -390 838 l 5
 -320 838 l 5
 -320 785 -278 762 -278 762 c 5
 -278 762 -280 768 -280 774 c 4
 -280 824 -240 864 -190 864 c 4
 -140 864 -100 824 -100 774 c 4
 -100 723 -140 674 -215 674 c 4xa680
 -291 674 -329 693 -371 754 c 5
 -430 680 l 5
 -578 680 -610 760 -610 835 c 4
 -610 911 -541 985 -447 985 c 4x6e80
 -377 985 -351 960 -307 960 c 4
 -235 960 -180 1021 -180 1090 c 5
 -50 1090 l 5x37
-190 814 m 4
 -212 814 -230 796 -230 774 c 4
 -230 752 -212 734 -190 734 c 4
 -168 734 -150 752 -150 774 c 4xa680
 -150 796 -168 814 -190 814 c 4
EndSplineSet
Fore
SplineSet
-120 1090 m 1x37
 -120 949 -245 885 -367 885 c 0x37
 -430 885 -441 900 -504 900 c 0
 -529 900 -560 879 -560 835 c 0
 -560 792 -539 765 -518 765 c 1x6f
 -460 838 l 1
 -390 838 l 1
 -390 785 -348 762 -348 762 c 1
 -348 762 -350 768 -350 774 c 0
 -350 824 -310 864 -260 864 c 0
 -210 864 -170 824 -170 774 c 0
 -170 723 -210 674 -285 674 c 0xa680
 -361 674 -399 693 -441 754 c 1
 -500 680 l 1
 -648 680 -680 760 -680 835 c 0
 -680 911 -611 985 -517 985 c 0x6e80
 -447 985 -421 960 -377 960 c 0
 -305 960 -250 1021 -250 1090 c 1
 -120 1090 l 1x37
-260 814 m 0
 -282 814 -300 796 -300 774 c 0
 -300 752 -282 734 -260 734 c 0
 -238 734 -220 752 -220 774 c 0xa680
 -220 796 -238 814 -260 814 c 0
EndSplineSet
Validated: 1
Position2: "Left Upper Vowel" dx=-100 dy=0 dh=0 dv=0
Position2: "Normal Upper Vowel" dx=70 dy=0 dh=0 dv=0
EndChar

StartChar: uni0E32
Encoding: 3634 3634 37
Width: 570
VWidth: 0
Flags: W
HStem: 0 21G<300 490> 492 120<91.9766 268.542>
VStem: 300 190<0 457.321>
LayerCount: 2
Back
SplineSet
330 0 m 5
 330 356 l 5
 328 456 301 498 220 498 c 4
 155 498 122 476 50 425 c 5
 0 526 l 5
 71 587 153 618 220 618 c 4
 381 618 520 567 520 356 c 6
 520 0 l 5
 330 0 l 5
EndSplineSet
Fore
SplineSet
300 0 m 1
 300 350 l 1
 298 450 268 492 215 492 c 0
 128 492 88 473 20 420 c 1
 20 540 l 1
 65 575 119 612 215 612 c 0
 407 612 490 522 490 350 c 2
 490 0 l 1
 300 0 l 1
EndSplineSet
Validated: 1
EndChar

StartChar: uni0E27
Encoding: 3623 3623 38
Width: 600
VWidth: 0
Flags: W
HStem: -12 75<344.489 435.511> 492 120<99.4331 303.21>
VStem: 260 75<72.4892 164.461> 330 190<216.095 459.687> 445 75<73.2203 164.242>
LayerCount: 2
Back
SplineSet
220 618 m 4xd0
 381 618 520 567 520 356 c 4xd0
 520 277 520 197 520 118 c 4
 520 46 462 -12 390 -12 c 4
 318 -12 260 46 260 118 c 4xe8
 260 168 288 212 330 233 c 5
 330 274 330 315 330 356 c 4
 328 456 301 498 220 498 c 4
 155 498 122 476 50 425 c 5
 0 526 l 5
 71 587 153 618 220 618 c 4xd0
390 173 m 4
 360 173 335 148 335 118 c 4
 335 88 360 63 390 63 c 4
 420 63 445 88 445 118 c 4xe8
 445 148 420 173 390 173 c 4
EndSplineSet
Fore
SplineSet
230 612 m 0xd0
 391 612 520 561 520 350 c 2xd0
 520 118 l 2
 520 46 462 -12 390 -12 c 0
 318 -12 260 46 260 118 c 0xe8
 260 168 288 212 330 233 c 1
 330 350 l 1
 328 450 311 492 230 492 c 0
 143 492 88 467 20 420 c 1
 20 540 l 1
 65 575 134 612 230 612 c 0xd0
390 173 m 0
 360 173 335 148 335 118 c 0
 335 88 360 63 390 63 c 0
 420 63 445 88 445 118 c 0xe8
 445 148 420 173 390 173 c 0
EndSplineSet
Validated: 1
EndChar

StartChar: uni0E4D
Encoding: 3661 3661 39
Width: 0
VWidth: 0
Flags: W
HStem: 670 85<-332.683 -237.317> 875 85<-332.683 -237.317>
VStem: -430 85<767.317 862.683> -225 85<767.317 862.683>
LayerCount: 2
Back
SplineSet
-185 960 m 4
 -105 960 -40 895 -40 815 c 4
 -40 735 -105 670 -185 670 c 4
 -265 670 -330 735 -330 815 c 4
 -330 895 -265 960 -185 960 c 4
-185 875 m 4
 -218 875 -245 848 -245 815 c 4
 -245 782 -218 755 -185 755 c 4
 -152 755 -125 782 -125 815 c 4
 -125 848 -152 875 -185 875 c 4
EndSplineSet
Fore
SplineSet
-285 960 m 0
 -205 960 -140 895 -140 815 c 0
 -140 735 -205 670 -285 670 c 0
 -365 670 -430 735 -430 815 c 0
 -430 895 -365 960 -285 960 c 0
-285 875 m 0
 -318 875 -345 848 -345 815 c 0
 -345 782 -318 755 -285 755 c 0
 -252 755 -225 782 -225 815 c 0
 -225 848 -252 875 -285 875 c 0
EndSplineSet
Validated: 1
Position2: "Normal Upper Vowel" dx=100 dy=0 dh=0 dv=0
Position2: "Left Upper Vowel" dx=-150 dy=0 dh=0 dv=0
EndChar

StartChar: uni0E39
Encoding: 3641 3641 40
Width: 0
VWidth: 0
Flags: W
HStem: -566 80<-277.017 -222.047> -289 75<-439.484 -360.516>
VStem: -520 75<-374.088 -294.516> -355 75<-374.588 -295.619> -220 140<-485.879 -230>
LayerCount: 2
Back
SplineSet
-400 -54 m 4
 -334 -54 -280 -108 -280 -174 c 2
 -280 -279 l 2
 -280 -309 -273 -326 -250 -326 c 0
 -232 -326 -220 -319 -220 -319 c 1
 -220 -70 l 1
 -80 -70 l 1
 -80 -369 l 1
 -80 -369 -156 -406 -250 -406 c 0
 -343 -406 -420 -383 -420 -314 c 2
 -420 -292 l 1
 -477 -283 -520 -233 -520 -174 c 0
 -520 -108 -466 -54 -400 -54 c 4
-400 -129 m 0
 -425 -129 -445 -149 -445 -174 c 0
 -445 -199 -425 -219 -400 -219 c 0
 -375 -219 -355 -199 -355 -174 c 0
 -355 -149 -375 -129 -400 -129 c 0
EndSplineSet
Fore
SplineSet
-400 -214 m 0
 -334 -214 -280 -268 -280 -334 c 2
 -280 -439 l 2
 -280 -469 -273 -486 -250 -486 c 0
 -232 -486 -220 -479 -220 -479 c 1
 -220 -230 l 1
 -80 -230 l 1
 -80 -529 l 1
 -80 -529 -156 -566 -250 -566 c 0
 -343 -566 -420 -543 -420 -474 c 2
 -420 -452 l 1
 -477 -443 -520 -393 -520 -334 c 0
 -520 -268 -466 -214 -400 -214 c 0
-400 -289 m 0
 -425 -289 -445 -309 -445 -334 c 0
 -445 -359 -425 -379 -400 -379 c 0
 -375 -379 -355 -359 -355 -334 c 0
 -355 -309 -375 -289 -400 -289 c 0
EndSplineSet
Validated: 1
Position2: "Lower Vowel" dx=0 dy=160 dh=0 dv=0
EndChar

StartChar: uni0E4E
Encoding: 3662 3662 41
Width: 0
VWidth: 0
Flags: W
HStem: 678 85<-456.474 -410> 883 85<-456.474 -410> 1028 85<-312.683 -217.317>
VStem: -555 85<775.317 870.683> -410 85<968 1014.47> -205 85<968 1014.47>
LayerCount: 2
Fore
SplineSet
-265 1113 m 0
 -185 1113 -120 1048 -120 968 c 1
 -205 968 l 1
 -205 1001 -232 1028 -265 1028 c 0
 -298 1028 -325 1001 -325 968 c 0
 -325 945 -304 923 -304 923 c 1
 -269 888 l 1
 -329 828 l 1
 -342 840 -355 852 -365 862 c 1
 -376 875 -392 883 -410 883 c 0
 -443 883 -470 856 -470 823 c 0
 -470 790 -443 763 -410 763 c 1
 -410 678 l 1
 -490 678 -555 743 -555 823 c 0
 -555 903 -490 968 -410 968 c 1
 -410 1048 -345 1113 -265 1113 c 0
EndSplineSet
Validated: 1
EndChar

StartChar: uni0E1D
Encoding: 3613 3613 42
Width: 760
VWidth: 0
Flags: W
HStem: 522 90<158.642 251.358>
VStem: 60 190<152.514 340.44> 60 90<420.758 513.242> 260 90<420.934 513.358> 490 190<150 860>
LayerCount: 2
Fore
SplineSet
205 612 m 0xb8
 285 612 350 547 350 467 c 0
 350 403 308 348 250 329 c 1
 250 150 l 1
 330 350 l 1
 410 350 l 1
 490 150 l 1
 490 860 l 1
 680 860 l 1
 680 38 l 1
 680 38 625 -12 480 -12 c 1
 370 240 l 1
 260 -12 l 1
 101 -12 60 1 60 205 c 2xd8
 60 467 l 2
 60 547 125 612 205 612 c 0xb8
205 522 m 0
 175 522 150 497 150 467 c 0xb8
 150 437 175 412 205 412 c 0
 235 412 260 437 260 467 c 0
 260 497 235 522 205 522 c 0
EndSplineSet
Validated: 1
EndChar

StartChar: uni0E1F
Encoding: 3615 3615 43
Width: 830
VWidth: 0
Flags: W
HStem: 522 90<128.642 220.823>
VStem: 30 90<420.934 513.358> 130 180<120.88 340.44> 230 80<420.758 513.242> 570 180<120 860>
LayerCount: 2
Fore
SplineSet
175 612 m 0xe8
 255 612 310 547 310 467 c 2
 310 120 l 1xd8
 410 540 l 1
 470 540 l 1
 570 120 l 1
 570 860 l 1
 750 860 l 1
 750 100 l 1
 750 100 675 -12 530 -12 c 1
 440 360 l 1
 350 -12 l 1
 191 -12 130 36 130 240 c 2
 130 329 l 1
 72 348 30 403 30 467 c 0
 30 547 95 612 175 612 c 0xe8
175 522 m 0
 145 522 120 497 120 467 c 0
 120 437 145 412 175 412 c 0
 205 412 230 437 230 467 c 0
 230 497 205 522 175 522 c 0
EndSplineSet
Validated: 1
EndChar

StartChar: uni0E05
Encoding: 3589 3589 44
Width: 740
VWidth: 0
Flags: W
HStem: 0 21G<100 272.222 480 660> 210 65<304.361 385.512> 365 65<305.248 385.456>
VStem: 60 150<309.4 478.176> 100 170<0 214.946> 390 65<279.488 360.512> 480 180<0 482.604>
LayerCount: 2
Back
SplineSet
205 618 m 5xf6
 305 548 l 5
 405 618 l 5
 508 593 608 549 610 394 c 5
 610 0 l 5
 430 0 l 5
 430 394 l 6
 430 466 416 500 395 521 c 5
 305 458 l 5
 215 521 l 5
 165 504 148 419 148 317 c 4xf6
 148 284 152 251 159 220 c 5
 176 354 214 430 300 430 c 4
 367 430 410 381 410 320 c 4
 410 259 361 210 300 210 c 4
 268 210 250 225 250 225 c 5
 250 225 235 202 235 0 c 5
 45 0 l 5xee
 45 160 20 189 20 335 c 4
 20 510 94 582 205 618 c 5xf6
300 365 m 4
 275 365 255 345 255 320 c 4
 255 295 275 275 300 275 c 4
 325 275 345 295 345 320 c 4
 345 345 325 365 300 365 c 4
EndSplineSet
Fore
SplineSet
240 612 m 1xf6
 355 538 l 1
 470 612 l 1
 626 570 659 461 660 340 c 2
 660 0 l 1
 480 0 l 1
 480 390 l 2
 480 458 470 488 440 504 c 1
 355 454 l 1
 260 504 l 1
 228 481 210 439 210 390 c 0xf6
 210 360 213 333 218 307 c 1
 242 372 280 430 345 430 c 0
 412 430 455 381 455 320 c 0
 455 259 406 210 345 210 c 0
 313 210 295 225 295 225 c 1
 276 208 270 0 270 0 c 1
 100 0 l 1xee
 100 188 60 206 60 340 c 0
 61 461 105 569 240 612 c 1xf6
345 365 m 0
 320 365 300 345 300 320 c 0
 300 295 320 275 345 275 c 0
 370 275 390 295 390 320 c 0
 390 345 370 365 345 365 c 0
EndSplineSet
Validated: 1
EndChar

StartChar: uni0E07
Encoding: 3591 3591 45
Width: 620
VWidth: 0
Flags: W
HStem: 522 90<348.642 441.358>
VStem: 250 90<420.934 513.358> 350 190<140 340.44> 450 90<420.758 513.242>
LayerCount: 2
Fore
SplineSet
395 612 m 0xe0
 475 612 540 547 540 467 c 2
 540 38 l 1xd0
 540 38 421 -12 300 -12 c 1
 183 190 40 295 40 295 c 1
 40 470 l 1
 40 470 248 316 350 140 c 1
 350 329 l 1
 292 348 250 403 250 467 c 0
 250 547 315 612 395 612 c 0xe0
395 522 m 0
 365 522 340 497 340 467 c 0
 340 437 365 412 395 412 c 0
 425 412 450 437 450 467 c 0
 450 497 425 522 395 522 c 0
EndSplineSet
Validated: 1
EndChar

StartChar: uni0E08
Encoding: 3592 3592 46
Width: 650
VWidth: 0
Flags: W
HStem: 170 75<174.489 266.422> 355 75<174.489 265.997> 492 120<123.723 355.866>
VStem: 90 75<254.489 345.511> 400 170<208.8 445.171>
LayerCount: 2
Back
SplineSet
250 618 m 4
 411 618 570 567 570 356 c 6
 570 36 l 5
 570 36 489 -12 370 -12 c 5
 370 -12 349 139 291 191 c 5
 271 178 246 170 220 170 c 4
 148 170 90 228 90 300 c 4
 90 372 148 430 220 430 c 4
 250 430 289 416 314 394 c 4
 389 327 400 217 410 180 c 5
 400 366 l 6
 393.627 484.543 331 498 250 498 c 4
 185 498 131 476 61 425 c 5
 10 526 l 5
 67 582 183 618 250 618 c 4
220 355 m 4
 190 355 165 330 165 300 c 4
 165 270 190 245 220 245 c 4
 250 245 275 270 275 300 c 4
 275 330 250 355 220 355 c 4
EndSplineSet
Fore
SplineSet
250 612 m 0
 411 612 570 561 570 350 c 2
 570 36 l 1
 570 36 489 -12 370 -12 c 1
 370 -12 349 139 291 191 c 1
 271 178 246 170 220 170 c 0
 148 170 90 228 90 300 c 0
 90 372 148 430 220 430 c 0
 250 430 289 416 314 394 c 0
 389 327 400 217 410 180 c 1
 400 360 l 2
 394 479 331 492 250 492 c 0
 185 492 110 471 40 420 c 1
 40 540 l 1
 97 591 183 612 250 612 c 0
220 355 m 0
 190 355 165 330 165 300 c 0
 165 270 190 245 220 245 c 0
 250 245 275 270 275 300 c 0
 275 330 250 355 220 355 c 0
EndSplineSet
Validated: 1
EndChar

StartChar: uni0E09
Encoding: 3593 3593 47
Width: 710
VWidth: 0
Flags: W
HStem: -18 90<478.723 571.358> 355 75<164.489 255.511> 498 120<173.366 387.935>
VStem: 80 75<253.647 345.511> 265 75<253.758 344.78> 440 190<249 440.112> 580 90<80.6419 172.887>
LayerCount: 2
Back
SplineSet
290 624 m 4xfc
 451 624 590 567 590 356 c 6
 590 249 l 5xfc
 574 241 l 5
 608 215 630 173 630 127 c 4xfa
 630 47 565 -18 485 -18 c 4
 420 -18 366 24 347 83 c 5
 316 65 274 26 250 -12 c 5
 141 -12 112 50 110 94 c 5
 110 185 l 5
 68 207 40 250 40 300 c 4
 40 372 98 430 170 430 c 4
 242 430 300 372 300 300 c 4
 300 262 300 193 300 160 c 5
 300 160 350 209 400 240 c 5
 400 356 l 5
 398 456 371 504 290 504 c 4
 211 504 145 498 50 436 c 5
 0 531 l 5
 92 601 200 624 290 624 c 4xfc
170 355 m 4
 140 355 115 330 115 300 c 4
 115 270 140 245 170 245 c 4
 200 245 225 270 225 300 c 4
 225 330 200 355 170 355 c 4
485 182 m 4
 455 182 430 157 430 127 c 4
 430 97 455 72 485 72 c 4
 515 72 540 97 540 127 c 4xfa
 540 157 515 182 485 182 c 4
EndSplineSet
Fore
SplineSet
310 618 m 0xfc
 471 618 630 555 630 344 c 2
 630 249 l 1xfc
 614 241 l 1
 648 215 670 173 670 127 c 0xfa
 670 47 605 -18 525 -18 c 0
 460 -18 406 24 387 83 c 1
 356 65 314 26 290 -12 c 1
 181 -12 152 50 150 94 c 1
 150 185 l 1
 108 207 80 250 80 300 c 0
 80 372 138 430 210 430 c 0
 282 430 340 372 340 300 c 2
 340 150 l 1
 340 150 394 218 440 240 c 1
 440 344 l 1
 438 444 391 498 310 498 c 0
 239 498 142 469 60 420 c 1
 60 540 l 1
 141 586 220 618 310 618 c 0xfc
210 355 m 0
 180 355 155 330 155 300 c 0
 155 270 180 245 210 245 c 0
 240 245 265 270 265 300 c 0
 265 330 240 355 210 355 c 0
525 182 m 0
 495 182 470 157 470 127 c 0
 470 97 495 72 525 72 c 0
 555 72 580 97 580 127 c 0xfa
 580 157 555 182 525 182 c 0
EndSplineSet
Validated: 1
EndChar

StartChar: uni0E0C
Encoding: 3596 3596 48
Width: 1000
VWidth: 0
Flags: W
HStem: -12 75<164.489 255.511 474.489 565.488> 492 120<244.213 399.652>
VStem: 80 190<216.095 339.278> 80 75<73.2203 164.242> 265 75<72.4892 164.461> 390 75<72.4892 164.394> 430 190<234 458.65> 730 190<150 590>
LayerCount: 2
Fore
SplineSet
330 612 m 1xe1
 526 612 619 497 620 334 c 1
 620 225 l 1xe3
 672 202 712 169 730 150 c 1
 730 590 l 1
 920 590 l 1
 920 28 l 1
 920 28 833 -3 750 -12 c 1
 750 -12 704 53 647 92 c 1
 635 32 583 -12 520 -12 c 0
 448 -12 390 46 390 118 c 0xc5
 390 162 412 200 445 224 c 1
 430 234 l 1
 430 334 l 2
 430 417 423 492 330 492 c 0
 258 492 225 452 205 431 c 1
 310 379 l 1
 310 379 270 355 270 324 c 2
 270 233 l 1xe3
 312 212 340 168 340 118 c 0
 340 46 282 -12 210 -12 c 0
 138 -12 80 46 80 118 c 2xd9
 80 284 l 2
 80 312 112 355 145 374 c 1
 40 423 l 1
 117 544 200 610 330 612 c 1xe1
210 173 m 0
 180 173 155 148 155 118 c 0
 155 88 180 63 210 63 c 0
 240 63 265 88 265 118 c 0xd9
 265 148 240 173 210 173 c 0
520 173 m 0
 490 173 465 148 465 118 c 0xc5
 465 88 490 63 520 63 c 0
 550 63 575 88 575 118 c 0
 575 148 550 173 520 173 c 0
EndSplineSet
Validated: 1
EndChar

StartChar: uni0E0E
Encoding: 3598 3598 49
Width: 700
VWidth: 0
Flags: W
HStem: -302 60<152.437 226.954> -162 60<152.726 227.549> -12 75<114.489 205.511> 492 120<244.213 399.652>
VStem: 30 75<72.4892 164.461> 90 60<-239.068 -164.932> 100 190<216.095 358.22> 215 75<73.2203 164.242> 290 90<-113.294 -60> 430 190<-202 458.65>
LayerCount: 2
Back
SplineSet
330 612 m 5xf240
 526 612 619 497 620 334 c 5
 620 -230 l 5
 620 -230 535 -288 430 -302 c 5
 430 -302 378 -250 319 -215 c 5
 310 -229 300 -242 290 -254 c 4
 268 -281 242 -302 190 -302 c 4
 138 -302 90 -257 90 -202 c 4
 90 -147 134 -102 190 -102 c 4
 223 -102 244 -105 282 -114 c 5
 286 -99 290 -80 290 -60 c 5
 380 -60 l 5xf4c0
 380 -88 371 -117 359 -146 c 5
 406 -173 430 -202 430 -202 c 5
 430 334 l 6
 430 417 423 492 330 492 c 4
 258 492 225 452 205 431 c 5
 310 379 l 5
 310 379 290 355 290 324 c 6xf240
 290 118 l 6
 290 46 232 -12 160 -12 c 4
 88 -12 30 46 30 118 c 4xf940
 30 168 58 212 100 233 c 5
 100 284 l 6
 100 312 112 355 145 374 c 5
 40 423 l 5
 117 544 200 610 330 612 c 5xf240
160 173 m 4
 130 173 105 148 105 118 c 4
 105 88 130 63 160 63 c 4
 190 63 215 88 215 118 c 4xf940
 215 148 190 173 160 173 c 4
190 -162 m 4
 168 -162 150 -180 150 -202 c 4xf440
 150 -224 168 -242 190 -242 c 4
 212 -242 230 -224 230 -202 c 4
 230 -180 212 -162 190 -162 c 4
EndSplineSet
Fore
SplineSet
330 612 m 1xf240
 526 612 619 497 620 334 c 1
 620 -230 l 1
 620 -230 535 -288 430 -302 c 1
 430 -302 378 -250 319 -215 c 1
 310 -229 300 -242 290 -254 c 0
 268 -281 242 -302 190 -302 c 0
 138 -302 90 -257 90 -202 c 0
 90 -147 134 -102 190 -102 c 0
 223 -102 244 -105 282 -114 c 1
 286 -99 290 -80 290 -60 c 1
 380 -60 l 1xf4c0
 380 -88 371 -117 359 -146 c 1
 406 -173 430 -202 430 -202 c 1
 430 334 l 2
 430 417 423 492 330 492 c 0
 258 492 225 452 205 431 c 1
 310 379 l 1
 310 379 290 355 290 324 c 2xf240
 290 118 l 2
 290 46 232 -12 160 -12 c 0
 88 -12 30 46 30 118 c 0xf940
 30 168 58 212 100 233 c 1
 100 284 l 2
 100 312 112 355 145 374 c 1
 40 423 l 1
 117 544 200 610 330 612 c 1xf240
160 173 m 0
 130 173 105 148 105 118 c 0
 105 88 130 63 160 63 c 0
 190 63 215 88 215 118 c 0xf940
 215 148 190 173 160 173 c 0
190 -162 m 0
 168 -162 150 -180 150 -202 c 0xf440
 150 -224 168 -242 190 -242 c 0
 212 -242 230 -224 230 -202 c 0
 230 -180 212 -162 190 -162 c 0
EndSplineSet
Validated: 1
EndChar

StartChar: uni0E0F
Encoding: 3599 3599 50
Width: 700
VWidth: 0
Flags: W
HStem: -302 60<152.437 226.721> -162 60<152.932 227.27> -12 75<114.489 205.511> 492 120<244.213 399.652>
VStem: 30 75<72.4892 164.461> 90 60<-239.068 -164.932> 100 190<216.095 358.22> 215 75<73.2203 164.242> 290 90<-139.835 -60> 430 190<-202 458.65>
LayerCount: 2
Back
SplineSet
330 612 m 5xf240
 526 612 619 497 620 334 c 5
 620 144 620 -40 620 -230 c 5
 620 -230 535 -288 430 -302 c 5
 380 -252 l 5
 330 -302 l 5
 290 -254 l 5
 265 -279 242 -302 190 -302 c 4
 138 -302 90 -257 90 -202 c 4
 90 -147 135 -102 190 -102 c 4
 222 -102 251 -117 269 -141 c 5
 277 -131 290 -98 290 -60 c 5
 380 -60 l 5
 380 -111 360 -159 330 -197 c 5
 380 -152 l 5xf4c0
 430 -202 l 5
 430 -21 430 153 430 334 c 4
 430 417 423 492 330 492 c 4
 258 492 225 452 205 431 c 5
 310 379 l 5
 310 379 290 355 290 324 c 6xf240
 290 118 l 6
 290 46 232 -12 160 -12 c 4
 88 -12 30 46 30 118 c 4xf940
 30 168 58 212 100 233 c 5
 100 284 l 6
 100 312 112 355 145 374 c 5
 40 423 l 5
 117 544 200 610 330 612 c 5xf240
160 173 m 4
 130 173 105 148 105 118 c 4
 105 88 130 63 160 63 c 4
 190 63 215 88 215 118 c 4xf940
 215 148 190 173 160 173 c 4
190 -162 m 4
 168 -162 150 -180 150 -202 c 4xf440
 150 -224 168 -242 190 -242 c 4
 212 -242 230 -224 230 -202 c 4
 230 -180 212 -162 190 -162 c 4
EndSplineSet
Fore
SplineSet
330 612 m 1xf240
 526 612 619 497 620 334 c 1
 620 144 620 -40 620 -230 c 1
 620 -230 535 -288 430 -302 c 1
 380 -252 l 1
 330 -302 l 1
 290 -254 l 1
 265 -279 242 -302 190 -302 c 0
 138 -302 90 -257 90 -202 c 0
 90 -147 135 -102 190 -102 c 0
 222 -102 251 -117 269 -141 c 1
 277 -131 290 -98 290 -60 c 1
 380 -60 l 1
 380 -111 360 -159 330 -197 c 1
 380 -152 l 1xf4c0
 430 -202 l 1
 430 -21 430 153 430 334 c 0
 430 417 423 492 330 492 c 0
 258 492 225 452 205 431 c 1
 310 379 l 1
 310 379 290 355 290 324 c 2xf240
 290 118 l 2
 290 46 232 -12 160 -12 c 0
 88 -12 30 46 30 118 c 0xf940
 30 168 58 212 100 233 c 1
 100 284 l 2
 100 312 112 355 145 374 c 1
 40 423 l 1
 117 544 200 610 330 612 c 1xf240
160 173 m 0
 130 173 105 148 105 118 c 0
 105 88 130 63 160 63 c 0
 190 63 215 88 215 118 c 0xf940
 215 148 190 173 160 173 c 0
190 -162 m 0
 168 -162 150 -180 150 -202 c 0xf440
 150 -224 168 -242 190 -242 c 0
 212 -242 230 -224 230 -202 c 0
 230 -180 212 -162 190 -162 c 0
EndSplineSet
Validated: 1
EndChar

StartChar: uni0E10
Encoding: 3600 3600 51
Width: 580
VWidth: 0
Flags: W
HStem: -302 108<402.437 469.105> -302 60<62.4375 136.721> -162 60<62.9321 137.27> -114 60<402.932 477.068> 94 65<139.488 220.15> 249 65<139.488 219.882> 492 120<226.738 415.272>
VStem: 0 60<-239.068 -164.932> 70 65<163.488 244.512> 200 90<-139.835 -60> 330 190<16.9536 56.2682 154 322.287> 340 60<-191.434 -116.932> 480 60<-189.558 -116.932>
LayerCount: 2
Fore
SplineSet
440 -54 m 0x1fd8
 495 -54 540 -99 540 -154 c 0
 540 -264 455 -302 340 -302 c 1
 290 -252 l 1
 240 -302 l 1
 200 -254 l 1
 175 -279 152 -302 100 -302 c 0
 48 -302 0 -257 0 -202 c 0
 0 -147 45 -102 100 -102 c 0x6fd8
 132 -102 161 -117 179 -141 c 1
 187 -131 200 -98 200 -60 c 1
 290 -60 l 1
 290 -111 270 -159 240 -197 c 1
 290 -152 l 1
 350 -217 l 1
 350 -217 354 -216 360 -214 c 1
 348 -198 340 -177 340 -154 c 0
 340 -99 385 -54 440 -54 c 0x1fd8
440 -114 m 0x9fd8
 418 -114 400 -132 400 -154 c 0
 400 -176 418 -194 440 -194 c 0
 462 -194 480 -176 480 -154 c 0
 480 -132 462 -114 440 -114 c 0x9fd8
100 -162 m 0x6fc0
 78 -162 60 -180 60 -202 c 0
 60 -224 78 -242 100 -242 c 0
 122 -242 140 -224 140 -202 c 0
 140 -180 122 -162 100 -162 c 0x6fc0
EndSplineSet
Refer: 3 63232 N 1 0 0 1 0 0 2
Validated: 1
Substitution2: "Thai Descent Remove" uni0E10.descless
EndChar

StartChar: uni0E11
Encoding: 3601 3601 52
Width: 750
VWidth: 0
Flags: W
HStem: 0 600<482.625 626.946> 287 65<103.321 182.788> 442 65<103.301 183.012>
VStem: 20 78<356.639 482.837> 140 190<0 210.703> 188 64<357.345 436.655> 480 190<0 399.993>
LayerCount: 2
Fore
SplineSet
135 612 m 1x76
 205 560 l 1
 275 612 l 1
 275 612 362 571 391 475 c 1
 436 540 496 600 550 600 c 0
 644 600 670 536 670 400 c 2
 670 0 l 1
 480 0 l 1
 480 370 l 2
 480 391 470 400 470 400 c 1
 470 400 330 236 330 100 c 2
 330 0 l 1
 140 0 l 1
 140 176 l 2
 140 262 301 337 301 448 c 0
 301 524 268 546 268 546 c 1
 205 500 l 1
 140 546 l 1x9a
 140 546 111 528 103 500 c 1
 114 505 131 507 142 507 c 0
 203 507 252 460 252 397 c 0
 252 334 203 287 141 287 c 0
 79 287 20 327 20 420 c 0
 20 573 135 612 135 612 c 1x76
143 442 m 0x76
 119 442 98 422 98 397 c 0
 98 372 119 352 143 352 c 0
 168 352 188 372 188 397 c 0
 188 422 168 442 143 442 c 0x76
EndSplineSet
Validated: 1
EndChar

StartChar: uni0E12
Encoding: 3602 3602 53
Width: 1040
VWidth: 0
Flags: W
HStem: -12 75<524.489 615.488> 0 21G<100 288> 365 65<309.488 390.512>
VStem: 60 150<205.622 473.784> 240 65<279.735 360.512> 395 65<279.797 360.512> 440 75<72.4892 164.394> 480 180<234 482.604> 770 190<150 590>
LayerCount: 2
Fore
SplineSet
240 612 m 1x7c80
 355 544 l 1
 470 612 l 1
 626 570 659 461 660 340 c 1
 660 225 l 1x7d80
 712 202 752 169 770 150 c 1
 770 590 l 1
 960 590 l 1
 960 28 l 1
 960 28 873 -3 790 -12 c 1
 790 -12 754 53 697 92 c 1
 685 32 633 -12 570 -12 c 0
 498 -12 440 46 440 118 c 0xba80
 440 162 462 200 495 224 c 1
 480 234 l 1
 480 234 480 338 480 390 c 0xb980
 480 458 470 488 440 504 c 1xba80
 355 454 l 1
 260 504 l 1
 213 457 210 427 210 340 c 0
 210 258 233 222 251 158 c 1
 267 176 292 202 307 219 c 1
 268 236 240 275 240 320 c 0
 240 381 289 430 350 430 c 0
 411 430 460 381 460 320 c 0
 460 168 306 134 270 0 c 1
 100 0 l 1
 100 188 60 206 60 340 c 1
 61 461 105 569 240 612 c 1x7c80
350 365 m 0
 325 365 305 345 305 320 c 0
 305 295 325 275 350 275 c 0
 375 275 395 295 395 320 c 0
 395 345 375 365 350 365 c 0
570 173 m 0
 540 173 515 148 515 118 c 0
 515 88 540 63 570 63 c 0xba80
 600 63 625 88 625 118 c 0
 625 148 600 173 570 173 c 0
EndSplineSet
Validated: 1
EndChar

StartChar: uni0E13
Encoding: 3603 3603 54
Width: 1000
VWidth: 0
Flags: W
HStem: -12 75<164.489 255.511 784.489 875.511> 492 120<244.213 399.652>
VStem: 80 190<216.095 339.278> 80 75<73.2203 164.242> 265 75<72.4892 164.461> 430 190<170 458.65> 700 75<73.2203 118> 730 190<235.071 590> 885 75<72.4892 163.616>
LayerCount: 2
Fore
SplineSet
330 612 m 1xe4
 526 612 619 497 620 334 c 1
 620 170 l 1
 620 170 669 222 730 247 c 1
 730 590 l 1
 920 590 l 1
 920 230 l 1xe5
 905 224 l 1
 938 201 960 162 960 118 c 0
 960 46 902 -12 830 -12 c 0
 758 -12 700 46 700 118 c 1
 638 62 590 -12 590 -12 c 1
 446 -12 430 61 430 205 c 2
 430 334 l 2
 430 417 423 492 330 492 c 0
 258 492 225 452 205 431 c 1
 310 379 l 1
 310 379 270 355 270 324 c 2
 270 233 l 1xe680
 312 212 340 168 340 118 c 0
 340 46 282 -12 210 -12 c 0
 138 -12 80 46 80 118 c 2xdc
 80 284 l 2
 80 312 112 355 145 374 c 1
 40 423 l 1
 117 544 200 610 330 612 c 1xe4
210 173 m 0
 180 173 155 148 155 118 c 0
 155 88 180 63 210 63 c 0
 240 63 265 88 265 118 c 0xdc
 265 148 240 173 210 173 c 0
830 173 m 0
 800 173 775 148 775 118 c 0
 775 88 800 63 830 63 c 0
 860 63 885 88 885 118 c 0xc680
 885 148 860 173 830 173 c 0
EndSplineSet
Validated: 1
EndChar

StartChar: uni0E14
Encoding: 3604 3604 55
Width: 740
VWidth: 0
Flags: W
HStem: 0 21G<100 298 480 660> 365 65<314.488 395.512> 492 120<274.627 432.696>
VStem: 60 150<223.272 426.764> 245 65<279.735 360.512> 400 65<279.797 360.512> 480 180<0 439.837>
LayerCount: 2
Fore
SplineSet
355 612 m 0
 551 612 659 497 660 334 c 1
 660 0 l 1
 480 0 l 1
 480 334 l 2
 480 417 448 492 355 492 c 0
 262 492 210 417 210 334 c 0
 211 259 242 224 262 150 c 1
 269 169 298 203 312 219 c 1
 273 236 245 275 245 320 c 0
 245 381 294 430 355 430 c 0
 416 430 465 381 465 320 c 0
 465 168 316 134 280 0 c 1
 100 0 l 1
 100 188 60 200 60 334 c 0
 61 497 159 612 355 612 c 0
355 365 m 0
 330 365 310 345 310 320 c 0
 310 295 330 275 355 275 c 0
 380 275 400 295 400 320 c 0
 400 345 380 365 355 365 c 0
EndSplineSet
Validated: 1
EndChar

StartChar: uni0E15
Encoding: 3605 3605 56
Width: 740
VWidth: 0
Flags: W
HStem: 0 21G<100 298 480 660> 365 65<314.488 395.512>
VStem: 60 150<248.352 478.176> 245 65<279.735 360.512> 400 65<279.797 360.512> 480 180<0 482.604>
LayerCount: 2
Fore
SplineSet
240 612 m 1
 355 538 l 1
 470 612 l 1
 626 570 659 461 660 340 c 1
 660 0 l 1
 480 0 l 1
 480 390 l 2
 480 458 470 488 440 504 c 1
 355 454 l 1
 260 504 l 1
 228 481 210 439 210 390 c 1
 212 297 243 240 263 153 c 1
 272 172 299 204 312 219 c 1
 273 236 245 275 245 320 c 0
 245 381 294 430 355 430 c 0
 416 430 465 381 465 320 c 0
 465 168 316 134 280 0 c 1
 100 0 l 1
 100 188 60 206 60 340 c 1
 61 461 105 569 240 612 c 1
355 365 m 0
 330 365 310 345 310 320 c 0
 310 295 330 275 355 275 c 0
 380 275 400 295 400 320 c 0
 400 345 380 365 355 365 c 0
EndSplineSet
Validated: 1
EndChar

StartChar: uni0E17
Encoding: 3607 3607 57
Width: 740
VWidth: 0
Flags: W
HStem: 0 600<472.016 616.946> 522 90<128.642 221.358>
VStem: 30 90<420.934 513.358> 130 190<0 210.703> 230 90<420.758 513.242> 470 190<0 399.993>
LayerCount: 2
Fore
SplineSet
175 612 m 0x74
 255 612 320 547 320 467 c 2
 320 360 l 1x6c
 348 439 451 600 540 600 c 0
 634 600 660 536 660 400 c 2
 660 0 l 1
 470 0 l 1
 470 370 l 2
 470 391 460 400 460 400 c 1
 460 400 320 236 320 100 c 2
 320 0 l 1
 130 0 l 1xb4
 130 329 l 1
 72 348 30 403 30 467 c 0
 30 547 95 612 175 612 c 0x74
175 522 m 0
 145 522 120 497 120 467 c 0
 120 437 145 412 175 412 c 0
 205 412 230 437 230 467 c 0
 230 497 205 522 175 522 c 0
EndSplineSet
Validated: 1
EndChar

StartChar: uni0E18
Encoding: 3608 3608 58
Width: 650
VWidth: 0
Flags: W
HStem: -12 120<259.423 378.667> 492 120<256.738 445.272>
VStem: 60 190<117.582 294> 380 190<114.961 318.48>
LayerCount: 2
Fore
SplineSet
330 612 m 0
 418 612 481 571 510 540 c 1
 532 562 590 590 590 590 c 1
 590 480 l 1
 590 480 564 470 510 420 c 1
 454 476 384 492 330 492 c 0
 276 492 230 456 230 424 c 1
 405 404 570 386 570 284 c 2
 570 53 l 1
 570 53 494 -12 315 -12 c 0
 136 -12 60 38 60 160 c 2
 60 294 l 1
 250 294 l 1
 250 180 l 2
 251 124 272 108 315 108 c 0
 358 108 380 130 380 130 c 1
 380 291 l 2
 380 356 125 354 40 364 c 1
 40 534 210 612 330 612 c 0
EndSplineSet
Validated: 1
EndChar

StartChar: uni0E1C
Encoding: 3612 3612 59
Width: 760
VWidth: 0
Flags: W
HStem: 522 90<158.642 251.358>
VStem: 60 190<152.514 340.44> 60 90<420.758 513.242> 260 90<420.934 513.358> 490 190<150 590>
LayerCount: 2
Fore
SplineSet
205 612 m 0xb8
 285 612 350 547 350 467 c 0
 350 403 308 348 250 329 c 1
 250 150 l 1
 330 350 l 1
 410 350 l 1
 490 150 l 1
 490 590 l 1
 680 590 l 1
 680 38 l 1
 680 38 625 -12 480 -12 c 1
 370 240 l 1
 260 -12 l 1
 101 -12 60 1 60 205 c 2xd8
 60 467 l 2
 60 547 125 612 205 612 c 0xb8
205 522 m 0
 175 522 150 497 150 467 c 0xb8
 150 437 175 412 205 412 c 0
 235 412 260 437 260 467 c 0
 260 497 235 522 205 522 c 0
EndSplineSet
Validated: 1
EndChar

StartChar: uni0E1E
Encoding: 3614 3614 60
Width: 830
VWidth: 0
Flags: W
HStem: 522 90<128.642 221.358>
VStem: 30 90<420.934 513.358> 130 190<122.685 340.44> 230 90<420.758 513.242> 560 190<120 590>
LayerCount: 2
Fore
SplineSet
175 612 m 0xe8
 255 612 320 547 320 467 c 2
 320 120 l 1xd8
 390 540 l 1
 490 540 l 1
 560 120 l 1
 560 590 l 1
 750 590 l 1
 750 38 l 1
 750 38 655 -12 510 -12 c 1
 440 360 l 1
 370 -12 l 1
 211 -12 130 1 130 205 c 2
 130 329 l 1
 72 348 30 403 30 467 c 0
 30 547 95 612 175 612 c 0xe8
175 522 m 0
 145 522 120 497 120 467 c 0
 120 437 145 412 175 412 c 0
 205 412 230 437 230 467 c 0
 230 497 205 522 175 522 c 0
EndSplineSet
Validated: 1
EndChar

StartChar: uni0E20
Encoding: 3616 3616 61
Width: 700
VWidth: 0
Flags: W
HStem: -12 75<114.489 205.511> 0 21G<430 620> 492 120<244.213 399.652>
VStem: 30 75<72.4892 164.461> 100 190<216.095 358.22> 215 75<73.2203 164.242> 430 190<0 458.65>
LayerCount: 2
Back
SplineSet
332 617 m 5xba
 528 617 619 504 620 341 c 5
 620 0 l 5
 440 0 l 5
 440 341 l 6
 440 424 425 497 332 497 c 4
 260 497 205 458 185 437 c 5
 260 400 l 5
 260 118 l 6x76
 260 46 202 -12 130 -12 c 4
 58 -12 0 46 0 118 c 4
 0 172 33 218 80 238 c 5
 80 290 l 6
 80 318 92 361 125 380 c 5
 20 429 l 5
 97 550 202 615 332 617 c 5xba
130 173 m 4
 100 173 75 148 75 118 c 4
 75 88 100 63 130 63 c 4xb6
 160 63 185 88 185 118 c 4
 185 148 160 173 130 173 c 4
EndSplineSet
Fore
SplineSet
330 612 m 1xaa
 526 612 619 497 620 334 c 1
 620 0 l 1
 430 0 l 1
 430 334 l 2
 430 417 423 492 330 492 c 0
 258 492 225 452 205 431 c 1
 310 379 l 1
 310 379 290 355 290 324 c 2x6a
 290 118 l 2
 290 46 232 -12 160 -12 c 0
 88 -12 30 46 30 118 c 0xb6
 30 168 58 212 100 233 c 1
 100 284 l 2
 100 312 112 355 145 374 c 1
 40 423 l 1
 117 544 200 610 330 612 c 1xaa
160 173 m 0
 130 173 105 148 105 118 c 0
 105 88 130 63 160 63 c 0
 190 63 215 88 215 118 c 0xb6
 215 148 190 173 160 173 c 0
EndSplineSet
Validated: 1
EndChar

StartChar: uni0E22
Encoding: 3618 3618 62
Width: 690
VWidth: 0
Flags: W
HStem: -12 120<264.288 416.744> 238 108<268.912 368.641> 537 75<175.337 265.511>
VStem: 60 190<123.904 217.794> 60 105<436.151 527.407> 275 75<436.545 527.511> 420 190<117.97 590>
LayerCount: 2
Fore
SplineSet
220 612 m 0xee
 292 612 350 554 350 482 c 0
 350 415 299 360 234 353 c 1
 250 349 268 346 287 346 c 0
 313 346 341 352 370 368 c 1
 370 238 l 1
 273 238 250 204 250 168 c 0
 250 131 281 108 335 108 c 0
 389 108 420 130 420 130 c 1
 420 590 l 1
 610 590 l 1
 610 48 l 1
 610 48 496 -12 335 -12 c 0
 164 -12 60 28 60 168 c 0xf6
 60 228 107 289 159 307 c 1
 101 331 60 385 60 452 c 1
 62 514 109 612 220 612 c 0xee
220 537 m 0
 190 537 165 512 165 482 c 0xee
 165 452 190 427 220 427 c 0
 250 427 275 452 275 482 c 0
 275 512 250 537 220 537 c 0
EndSplineSet
Validated: 1
EndChar

StartChar: uni0E24
Encoding: 3620 3620 63
Width: 700
VWidth: 0
Flags: W
HStem: -12 75<164.489 255.511> 492 120<244.213 399.652>
VStem: 80 190<216.095 339.278> 80 75<73.2203 164.242> 265 75<72.4892 164.461> 430 190<-260 458.65>
LayerCount: 2
Fore
SplineSet
330 612 m 1xe4
 526 612 619 497 620 334 c 1
 620 -260 l 1
 430 -260 l 1
 430 334 l 2
 430 417 423 492 330 492 c 0
 258 492 225 452 205 431 c 1
 310 379 l 1
 310 379 270 355 270 324 c 2
 270 233 l 1xe4
 312 212 340 168 340 118 c 0
 340 46 282 -12 210 -12 c 0
 138 -12 80 46 80 118 c 2xdc
 80 284 l 2
 80 312 112 355 145 374 c 1
 40 423 l 1
 117 544 200 610 330 612 c 1xe4
210 173 m 0
 180 173 155 148 155 118 c 0
 155 88 180 63 210 63 c 0
 240 63 265 88 265 118 c 0xdc
 265 148 240 173 210 173 c 0
EndSplineSet
Validated: 1
EndChar

StartChar: uni0E25
Encoding: 3621 3621 64
Width: 690
VWidth: 0
Flags: W
HStem: -12 75<153.876 245.511> 275 120<254.731 360.186> 492 120<156.263 390.716>
VStem: 60 85<73.2203 164.242> 255 75<72.4892 163.875> 420 190<25.3369 207.402 318 461.377>
LayerCount: 2
Back
SplineSet
270 618 m 4
 431 618 590 567 590 356 c 6
 590 37 l 5
 590 37 517 0 400 -12 c 5
 400 150 l 6
 400 216 339 290 265 290 c 4
 229 290 220 254 220 238 c 5
 267 218 300 172 300 118 c 4
 300 46 242 -12 170 -12 c 4
 98 -12 40 46 40 118 c 6
 40 210 l 6
 40 296 110 410 265 410 c 4
 328 410 379 374 400 330 c 5
 400 410 l 6
 400 467 326 498 270 498 c 4
 205 498 140 476 70 425 c 5
 20 526 l 5
 77 582 203 618 270 618 c 4
170 173 m 4
 140 173 115 148 115 118 c 4
 115 88 140 63 170 63 c 4
 200 63 225 88 225 118 c 4
 225 148 200 173 170 173 c 4
EndSplineSet
Fore
SplineSet
310 612 m 0
 471 612 610 555 610 344 c 2
 610 28 l 1
 610 28 537 0 420 -12 c 1
 420 120 l 2
 420 186 369 275 295 275 c 0
 269 275 250 254 250 238 c 1
 297 218 330 172 330 118 c 0
 330 46 272 -12 200 -12 c 0
 128 -12 60 46 60 118 c 2
 60 210 l 2
 60 306 124 395 295 395 c 0
 391 395 420 318 420 318 c 1
 420 446 406 492 310 492 c 0
 239 492 150 479 60 420 c 1
 60 540 l 1
 108 577 220 612 310 612 c 0
200 173 m 0
 170 173 145 148 145 118 c 0
 145 88 170 63 200 63 c 0
 230 63 255 88 255 118 c 0
 255 148 230 173 200 173 c 0
EndSplineSet
Validated: 1
EndChar

StartChar: uni0E26
Encoding: 3622 3622 65
Width: 700
VWidth: 0
Flags: W
HStem: -12 75<114.489 205.511> 492 120<244.213 399.652>
VStem: 30 75<72.4892 164.461> 100 190<216.095 358.22> 215 75<73.2203 164.242> 430 190<-260 458.65>
LayerCount: 2
Fore
SplineSet
330 612 m 1xd4
 526 612 619 497 620 334 c 1
 620 -260 l 1
 430 -260 l 1
 430 334 l 2
 430 417 423 492 330 492 c 0
 258 492 225 452 205 431 c 1
 310 379 l 1
 310 379 290 355 290 324 c 2xd4
 290 118 l 2
 290 46 232 -12 160 -12 c 0
 88 -12 30 46 30 118 c 0xec
 30 168 58 212 100 233 c 1
 100 284 l 2
 100 312 112 355 145 374 c 1
 40 423 l 1
 117 544 200 610 330 612 c 1xd4
160 173 m 0
 130 173 105 148 105 118 c 0
 105 88 130 63 160 63 c 0
 190 63 215 88 215 118 c 0xec
 215 148 190 173 160 173 c 0
EndSplineSet
Validated: 1
EndChar

StartChar: uni0E28
Encoding: 3624 3624 66
Width: 720
VWidth: 0
Flags: W
HStem: 0 21G<100 272.222 480 660> 210 65<304.361 385.512> 365 65<305.234 385.456> 492 120<274.627 430.536>
VStem: 60 150<293.337 426.764> 100 170<0 211.112> 390 65<279.488 360.512> 480 180<0 438.224>
LayerCount: 2
Back
SplineSet
440 660 m 5xfb
 630 660 l 5
 614 585 598 541 567 518 c 5
 594 479 610 426 610 356 c 6
 610 0 l 5
 440 0 l 5
 440 356 l 6
 440 456 394 498 310 498 c 4
 188 498 143 430 143 342 c 4xfb
 143 322 146 301 150 280 c 5
 175 344 213 430 300 430 c 4
 361 430 410 381 410 320 c 4
 410 259 361 210 300 210 c 4
 273 210 249 219 230 235 c 5
 218 223 224 205 224 191 c 4
 224 187 224 183 225 180 c 4
 231 148 235 117 235 80 c 4
 235 52 233 30 230 0 c 5
 60 0 l 5xf7
 60 86 52 139 42 180 c 4
 27 239 20 274 20 342 c 4
 20 518 129 618 310 618 c 4
 352 618 393 614 430 605 c 5
 436 622 440 641 440 660 c 5xfb
300 365 m 4
 275 365 255 345 255 320 c 4
 255 295 275 275 300 275 c 4
 325 275 345 295 345 320 c 4
 345 345 325 365 300 365 c 4
EndSplineSet
Fore
SplineSet
680 660 m 1xfb
 680 496 l 1
 657 496 638 488 621 479 c 1
 646 436 660 384 660 328 c 2
 660 0 l 1
 480 0 l 1
 480 328 l 2
 480 411 448 492 355 492 c 0
 262 492 210 417 210 334 c 0xfb
 210 316 211 306 213 292 c 1
 236 364 275 430 345 430 c 0
 412 430 455 381 455 320 c 0
 455 259 406 210 345 210 c 0
 313 210 295 225 295 225 c 1
 276 208 270 0 270 0 c 1
 100 0 l 1xf7
 100 188 60 200 60 334 c 0
 61 497 159 612 355 612 c 0
 414 612 466 601 508 581 c 1
 547 612 603 649 680 660 c 1xfb
345 365 m 0
 320 365 300 345 300 320 c 0
 300 295 320 275 345 275 c 0
 370 275 390 295 390 320 c 0
 390 345 370 365 345 365 c 0
EndSplineSet
Validated: 1
EndChar

StartChar: uni0E29
Encoding: 3625 3625 67
Width: 770
VWidth: 0
Flags: W
HStem: -12 120<339.5 487.377> 372 65<404.488 485.812> 522 90<128.642 221.358>
VStem: 30 90<420.934 513.358> 130 190<127.105 340.44> 230 90<420.758 513.242> 335 65<287.234 367.512> 490 190<118.485 184.607 346 367.588 427 590>
LayerCount: 2
Fore
SplineSet
175 612 m 0xfb
 255 612 320 547 320 467 c 2xf7
 320 205 l 2
 320 142 346 108 400 108 c 0
 454 108 490 130 490 130 c 1
 490 177 l 1
 410 197 335 246 335 327 c 0
 335 388 384 437 445 437 c 0
 461 437 476 434 490 427 c 1
 490 590 l 1
 680 590 l 1
 680 346 l 1
 698 367 735 392 750 420 c 1
 750 230 l 1
 734 217 698 205 680 194 c 1
 680 60 l 1
 680 60 608 -12 395 -12 c 0
 182 -12 130 61 130 205 c 2
 130 329 l 1
 72 348 30 403 30 467 c 0
 30 547 95 612 175 612 c 0xfb
175 522 m 0
 145 522 120 497 120 467 c 0
 120 437 145 412 175 412 c 0
 205 412 230 437 230 467 c 0
 230 497 205 522 175 522 c 0
445 372 m 0
 420 372 400 352 400 327 c 0
 400 302 420 282 445 282 c 0
 470 282 490 302 490 327 c 0
 490 352 470 372 445 372 c 0
EndSplineSet
Validated: 1
EndChar

StartChar: uni0E2A
Encoding: 3626 3626 68
Width: 690
VWidth: 0
Flags: W
HStem: -12 75<153.876 245.511> 275 120<254.731 357.406> 492 120<156.263 372.447>
VStem: 60 85<73.2203 164.242> 255 75<72.4892 163.875> 420 190<25.3369 207.402 245 432.879>
LayerCount: 2
Back
SplineSet
410 660 m 5
 600 660 l 5
 584 584 567 540 536 517 c 5
 564 478 580 426 580 356 c 6
 580 37 l 5
 580 37 527 0 410 -12 c 5
 410 150 l 6
 410 216 339 290 265 290 c 4
 229 290 220 254 220 238 c 5
 267 218 300 172 300 118 c 4
 300 46 242 -12 170 -12 c 4
 98 -12 40 46 40 118 c 6
 40 210 l 6
 40 296 110 410 265 410 c 4
 328 410 389 374 410 330 c 5
 410 410 l 6
 410 467 326 498 270 498 c 4
 205 498 140 476 70 425 c 5
 20 526 l 5
 77 582 203 618 270 618 c 4
 315 618 359 614 399 604 c 5
 406 621 410 640 410 660 c 5
170 173 m 4
 140 173 115 148 115 118 c 4
 115 88 140 63 170 63 c 4
 200 63 225 88 225 118 c 4
 225 148 200 173 170 173 c 4
EndSplineSet
Fore
SplineSet
630 660 m 1
 630 496 l 1
 612 496 597 489 583 481 c 1
 600 445 610 400 610 344 c 2
 610 28 l 1
 610 28 537 0 420 -12 c 1
 420 120 l 2
 420 186 369 275 295 275 c 0
 269 275 250 254 250 238 c 1
 297 218 330 172 330 118 c 0
 330 46 272 -12 200 -12 c 0
 128 -12 60 46 60 118 c 2
 60 210 l 2
 60 306 124 395 295 395 c 0
 391 395 420 245 420 245 c 1
 420 373 406 492 310 492 c 0
 239 492 150 479 60 420 c 1
 60 540 l 1
 108 577 220 612 310 612 c 0
 366 612 420 605 466 587 c 1
 504 616 557 650 630 660 c 1
200 173 m 0
 170 173 145 148 145 118 c 0
 145 88 170 63 200 63 c 0
 230 63 255 88 255 118 c 0
 255 148 230 173 200 173 c 0
EndSplineSet
Validated: 1
EndChar

StartChar: uni0E2C
Encoding: 3628 3628 69
Width: 860
VWidth: 0
Flags: W
HStem: 522 90<128.642 221.358> 537 75<604.489 695.566>
VStem: 30 90<420.934 513.358> 130 190<186.429 340.44> 230 90<420.758 513.242> 520 75<435.956 527.511> 560 190<180 388> 705 145<435.758 506.873>
LayerCount: 2
Fore
SplineSet
175 612 m 0xb2
 255 612 320 547 320 467 c 2
 320 180 l 1
 390 540 l 1
 490 540 l 1
 560 180 l 1
 560 388 l 1xaa
 535 412 520 445 520 482 c 0
 520 554 578 612 650 612 c 0
 713 612 766 567 778 507 c 1
 803 517 839 527 850 540 c 1
 850 420 l 1x65
 850 420 790 389 750 381 c 1
 750 38 l 1
 750 38 655 -12 510 -12 c 1
 440 360 l 1
 370 -12 l 1
 211 -12 130 1 130 205 c 2
 130 329 l 1
 72 348 30 403 30 467 c 0
 30 547 95 612 175 612 c 0xb2
650 537 m 0x65
 620 537 595 512 595 482 c 0
 595 452 620 427 650 427 c 0
 680 427 705 452 705 482 c 0
 705 512 680 537 650 537 c 0x65
175 522 m 0xa8
 145 522 120 497 120 467 c 0
 120 437 145 412 175 412 c 0
 205 412 230 437 230 467 c 0
 230 497 205 522 175 522 c 0xa8
EndSplineSet
Validated: 1
EndChar

StartChar: uni0E2D
Encoding: 3629 3629 70
Width: 660
VWidth: 0
Flags: W
HStem: -12 110<237.815 386.264> 346 90<138.642 231.358> 492 120<126.263 349.493>
VStem: 40 90<246.466 337.242> 240 90<244.803 337.358> 390 190<107.818 447.085>
LayerCount: 2
Back
SplineSet
290 624 m 4
 451 624 590 573 590 362 c 6
 590 54 l 5
 590 54 482 -18 320 -18 c 4
 228 -18 159 -9 108 48 c 4
 57 105 50 142 50 256 c 6
 50 285 l 6
 50 365 115 430 195 430 c 4
 275 430 340 365 340 285 c 4
 340 216 292 159 228 144 c 5
 244 115 272 92 320 92 c 4
 358 92 383 107 400 120 c 5
 400 362 l 5
 398 462 371 504 290 504 c 4
 225 504 140 482 70 431 c 5
 20 532 l 5
 77 588 223 624 290 624 c 4
195 340 m 4
 165 340 140 315 140 285 c 4
 140 255 165 230 195 230 c 4
 225 230 250 255 250 285 c 4
 250 315 225 340 195 340 c 4
EndSplineSet
Fore
SplineSet
280 612 m 0
 441 612 580 555 580 344 c 2
 580 120 l 1
 580 120 525 -12 310 -12 c 0
 218 -12 149 -3 98 54 c 0
 47 111 40 148 40 262 c 2
 40 291 l 2
 40 371 105 436 185 436 c 0
 265 436 330 371 330 291 c 0
 330 222 282 165 218 150 c 1
 234 121 262 98 310 98 c 0
 348 98 373 107 390 120 c 1
 390 318 l 2
 390 410 376 492 280 492 c 0
 209 492 120 479 30 420 c 1
 30 540 l 1
 78 577 190 612 280 612 c 0
185 346 m 0
 155 346 130 321 130 291 c 0
 130 261 155 236 185 236 c 0
 215 236 240 261 240 291 c 0
 240 321 215 346 185 346 c 0
EndSplineSet
Validated: 1
EndChar

StartChar: uni0E2E
Encoding: 3630 3630 71
Width: 690
VWidth: 0
Flags: W
HStem: -12 110<267.815 414.666> 346 90<168.642 261.358> 492 120<156.263 382.271>
VStem: 70 90<246.466 337.242> 270 90<244.803 337.358> 420 190<109.755 450.943>
LayerCount: 2
Back
SplineSet
290 617 m 4
 451 617 590 567 590 356 c 6
 590 60 l 5
 590 60 482 -12 320 -12 c 4
 228 -12 159 -3 108 54 c 4
 57 111 50 142 50 256 c 6
 50 285 l 6
 50 365 115 430 195 430 c 4
 275 430 340 365 340 285 c 4
 340 216 292 159 228 144 c 5
 244 115 272 98 320 98 c 4
 358 98 393 113 410 126 c 5
 410 356 l 5
 408 456 371 497 290 497 c 4
 225 497 140 476 70 425 c 5
 20 526 l 5
 77 582 223 617 290 617 c 4
195 340 m 4
 165 340 140 315 140 285 c 4
 140 255 165 230 195 230 c 4
 225 230 250 255 250 285 c 4
 250 315 225 340 195 340 c 4
EndSplineSet
Fore
SplineSet
630 660 m 1
 630 496 l 1
 612 496 597 483 583 481 c 1
 600 445 610 400 610 344 c 2
 610 60 l 1
 610 60 502 -12 340 -12 c 0
 248 -12 179 -3 128 54 c 0
 77 111 70 148 70 262 c 2
 70 291 l 2
 70 371 135 436 215 436 c 0
 295 436 360 371 360 291 c 0
 360 222 312 165 248 150 c 1
 264 121 292 98 340 98 c 0
 378 98 403 113 420 126 c 1
 420 318 l 2
 420 410 406 492 310 492 c 0
 239 492 150 479 60 420 c 1
 60 540 l 1
 108 577 220 612 310 612 c 0
 366 612 420 605 466 587 c 1
 504 616 557 650 630 660 c 1
215 346 m 0
 185 346 160 321 160 291 c 0
 160 261 185 236 215 236 c 0
 245 236 270 261 270 291 c 0
 270 321 245 346 215 346 c 0
EndSplineSet
Validated: 1
EndChar

StartChar: uni0E2F
Encoding: 3631 3631 72
Width: 660
VWidth: 0
Flags: W
HStem: -12 100<235 340.085> 323 107<235 311.123> 530 65<99.4878 180.512>
VStem: 30 65<445.148 525.512> 185 65<444.29 525.512> 370 190<112.649 383 493.509 573>
LayerCount: 2
Fore
SplineSet
140 595 m 0
 201 595 250 546 250 485 c 0
 250 465 245 446 235 430 c 1
 309 430 355 482 370 573 c 1
 560 573 l 1
 560 573 560 304 560 108 c 1
 560 108 486 -12 235 -12 c 1
 235 88 l 1
 318 88 370 128 370 128 c 1
 370 383 l 1
 370 383 331 323 235 323 c 0
 133 323 30 373 30 485 c 0
 30 546 79 595 140 595 c 0
140 530 m 0
 115 530 95 510 95 485 c 0
 95 460 115 440 140 440 c 0
 165 440 185 460 185 485 c 0
 185 510 165 530 140 530 c 0
EndSplineSet
Validated: 1
EndChar

StartChar: uni0E30
Encoding: 3632 3632 73
Width: 640
VWidth: 0
Flags: W
HStem: 20 99<283 367.449> 230 70<136.241 223.865> 320 99<283 367.449> 530 70<136.241 223.865>
VStem: 60 70<136.57 223.445 436.57 523.445> 230 70<136.617 223.674 436.617 523.674> 416 144<166.912 250 466.912 550>
LayerCount: 2
Fore
SplineSet
180 600 m 0
 246 600 300 546 300 480 c 0
 300 458 294 437 283 419 c 1
 369 419 416 478 416 550 c 1
 560 550 l 1
 560 426 451 320 300 320 c 0
 179 320 60 360 60 485 c 0
 60 551 115 600 180 600 c 0
180 530 m 0
 152 530 130 508 130 480 c 0
 130 452 152 430 180 430 c 0
 207 430 230 452 230 480 c 0
 230 508 207 530 180 530 c 0
180 300 m 0
 246 300 300 246 300 180 c 0
 300 158 294 137 283 119 c 1
 369 119 416 178 416 250 c 1
 560 250 l 1
 560 126 451 20 300 20 c 0
 179 20 60 60 60 185 c 0
 60 251 115 300 180 300 c 0
180 230 m 0
 152 230 130 208 130 180 c 0
 130 152 152 130 180 130 c 0
 207 130 230 152 230 180 c 0
 230 208 207 230 180 230 c 0
EndSplineSet
Validated: 1
EndChar

StartChar: uni0E42
Encoding: 3650 3650 75
Width: 440
VWidth: 0
Flags: W
HStem: -12 75<224.489 315.511> 895 117<406.911 470> 942 90<157.999 335.009>
VStem: 140 190<216.095 775.135> 140 75<73.2203 164.242> 325 75<72.4892 164.461>
LayerCount: 2
Fore
SplineSet
240 1032 m 0xb0
 310 1032 361 1002 389 970 c 1
 406 989 440 1012 470 1012 c 1
 470 895 l 1xd0
 439 892 405 880 389 860 c 1
 362 903 316 942 240 942 c 0
 186 942 159 921 140 902 c 1xa8
 199 877 330 802 330 700 c 2
 330 233 l 1xb0
 372 212 400 168 400 118 c 0
 400 46 342 -12 270 -12 c 0
 198 -12 140 46 140 118 c 2xac
 140 700 l 2
 140 765 105 842 20 852 c 1
 20 959 120 1032 240 1032 c 0xb0
270 173 m 0
 240 173 215 148 215 118 c 0
 215 88 240 63 270 63 c 0
 300 63 325 88 325 118 c 0x8c
 325 148 300 173 270 173 c 0
EndSplineSet
Validated: 1
EndChar

StartChar: uni0E43
Encoding: 3651 3651 76
Width: 440
VWidth: 0
Flags: W
HStem: -12 75<224.489 315.511> 727 70<103.321 182.788> 887 65<142 182.437> 968 64<143.484 266.3>
VStem: 20 78<802.808 881.571> 140 190<216.095 653.657> 140 75<73.2203 164.242> 188 64<802.038 881.655> 301 99<790.648 934.178> 325 75<72.4892 164.461>
LayerCount: 2
Fore
SplineSet
200 1032 m 0xf980
 340 1032 400 939 400 830 c 0xf980
 400 721 330 665 330 590 c 2
 330 233 l 1xfc
 372 212 400 168 400 118 c 0
 400 46 342 -12 270 -12 c 0
 198 -12 140 46 140 118 c 2xfa40
 140 590 l 2xfc
 140 676 301 757 301 868 c 0
 301 922 261 968 195 968 c 0
 175 968 154 962 142 952 c 1
 203 952 252 905 252 842 c 0
 252 779 203 727 141 727 c 0
 79 727 20 772 20 865 c 0
 20 948 95 1032 200 1032 c 0xf980
143 887 m 0
 119 887 98 867 98 842 c 0
 98 817 119 797 143 797 c 0
 168 797 188 817 188 842 c 0
 188 867 168 887 143 887 c 0
270 173 m 0
 240 173 215 148 215 118 c 0
 215 88 240 63 270 63 c 0
 300 63 325 88 325 118 c 0xfa40
 325 148 300 173 270 173 c 0
EndSplineSet
Validated: 1
EndChar

StartChar: uni0E44
Encoding: 3652 3652 77
Width: 440
VWidth: 0
Flags: W
HStem: -12 75<224.489 315.511>
VStem: 140 190<216.095 680.54> 140 75<73.2203 164.242> 325 75<72.4892 164.461>
LayerCount: 2
Fore
SplineSet
20 1020 m 1xa0
 20 1020 119 934 140 880 c 1xa0
 380 1020 l 1
 440 920 l 1
 440 920 330 797 330 590 c 2
 330 233 l 1xc0
 372 212 400 168 400 118 c 0
 400 46 342 -12 270 -12 c 0
 198 -12 140 46 140 118 c 2xb0
 140 590 l 2xc0
 140 688 290 868 290 868 c 1
 140 780 l 1
 99 851 20 899 20 899 c 1
 20 1020 l 1xa0
270 173 m 0
 240 173 215 148 215 118 c 0
 215 88 240 63 270 63 c 0
 300 63 325 88 325 118 c 0xb0
 325 148 300 173 270 173 c 0
EndSplineSet
Validated: 1
EndChar

StartChar: uni0E45
Encoding: 3653 3653 78
Width: 330
VWidth: 0
Flags: W
HStem: 492 120<-148.023 28.5421>
VStem: 60 190<-260 457.321>
LayerCount: 2
Fore
SplineSet
60 -260 m 1
 60 350 l 1
 58 450 28 492 -25 492 c 0
 -112 492 -152 473 -220 420 c 1
 -220 540 l 1
 -175 575 -121 612 -25 612 c 0
 167 612 250 522 250 350 c 2
 250 -260 l 1
 60 -260 l 1
EndSplineSet
Validated: 1
EndChar

StartChar: uni0E46
Encoding: 3654 3654 79
Width: 810
VWidth: 0
Flags: W
HStem: 210 75<204.489 295.511>
VStem: 120 75<295.22 382.839> 305 75<294.489 386.095> 470 180<-260 491.976>
LayerCount: 2
Fore
SplineSet
300 612 m 1
 385 538 l 1
 470 612 l 1
 626 570 649 461 650 340 c 1
 650 -260 l 1
 470 -260 l 1
 470 390 l 1
 468 458 470 488 440 504 c 1
 385 454 l 1
 330 504 l 1
 313 495 312 481 306 457 c 1
 350 436 380 392 380 340 c 0
 380 268 322 210 250 210 c 0
 178 210 120 268 120 340 c 0
 120 342 120 343 120 344 c 0
 122 464 146 571 300 612 c 1
250 395 m 0
 220 395 195 370 195 340 c 0
 195 310 220 285 250 285 c 0
 280 285 305 310 305 340 c 0
 305 370 280 395 250 395 c 0
EndSplineSet
Validated: 1
EndChar

StartChar: uni0E1A.alt
Encoding: 63292 63292 93
Width: 700
VWidth: 0
Flags: W
HStem: -12 120<319.5 467.377> 522 90<108.642 201.358>
VStem: 10 90<420.934 513.358> 110 190<127.105 340.44> 210 90<420.758 513.242> 470 190<118.485 590>
LayerCount: 2
Fore
SplineSet
155 612 m 0xf4
 235 612 300 547 300 467 c 2xec
 300 205 l 2
 300 142 326 108 380 108 c 0
 434 108 470 130 470 130 c 1
 470 590 l 1
 660 590 l 1
 660 60 l 1
 660 60 588 -12 375 -12 c 0
 162 -12 110 61 110 205 c 2
 110 329 l 1
 52 348 10 403 10 467 c 0
 10 547 75 612 155 612 c 0xf4
155 522 m 0
 125 522 100 497 100 467 c 0
 100 437 125 412 155 412 c 0
 185 412 210 437 210 467 c 0
 210 497 185 522 155 522 c 0
EndSplineSet
Validated: 1
EndChar

StartChar: uni0E1B.alt
Encoding: 63293 63293 94
Width: 760
VWidth: 0
Flags: W
HStem: -12 120<339.5 487.377> 522 90<128.642 221.358>
VStem: 30 90<420.934 513.358> 130 190<127.105 340.44> 230 90<420.758 513.242> 490 190<118.485 860>
LayerCount: 2
Back
SplineSet
170 612 m 4xf4
 258 612 330 540 330 452 c 6xec
 330 205 l 6
 330 142 356 108 410 108 c 4
 464 108 500 130 500 130 c 5
 500 860 l 5
 690 860 l 5
 690 60 l 5
 690 60 618 -12 405 -12 c 4
 192 -12 140 61 140 205 c 6
 140 295 l 5
 66 309 10 374 10 452 c 4
 10 540 82 612 170 612 c 4xf4
170 512 m 4
 137 512 110 485 110 452 c 4
 110 419 137 392 170 392 c 4
 203 392 230 419 230 452 c 4
 230 485 203 512 170 512 c 4
EndSplineSet
Fore
SplineSet
175 612 m 0xf4
 255 612 320 547 320 467 c 2xec
 320 205 l 2
 320 142 346 108 400 108 c 0
 454 108 490 130 490 130 c 1
 490 860 l 1
 680 860 l 1
 680 60 l 1
 680 60 608 -12 395 -12 c 0
 182 -12 130 61 130 205 c 2
 130 329 l 1
 72 348 30 403 30 467 c 0
 30 547 95 612 175 612 c 0xf4
175 522 m 0
 145 522 120 497 120 467 c 0
 120 437 145 412 175 412 c 0
 205 412 230 437 230 467 c 0
 230 497 205 522 175 522 c 0
EndSplineSet
Validated: 1
EndChar

StartChar: uni0E48.nikhahit
Encoding: 63251 63251 95
Width: 0
VWidth: 0
Flags: W
HStem: 670 85<-232.683 -137.317> 875 85<-232.683 -137.317> 1000 250<-255 -105>
VStem: -330 85<767.317 862.683> -255 150<1000 1250> -125 85<767.317 862.683>
LayerCount: 2
Fore
SplineSet
-255 1250 m 1xe8
 -105 1250 l 5
 -105 1000 l 5
 -255 1000 l 1
 -255 1250 l 1xe8
EndSplineSet
Refer: 39 3661 N 1 0 0 1 100 0 2
Validated: 1
Position2: "Thai Tone-Nikhahit Adjust-1" dx=-250 dy=0 dh=0 dv=0
LCarets2: 1 0 
Ligature2: "Tone-Nikhahit Ligature" uni0E48 uni0E4D
EndChar

StartChar: uni0E49.nikhahit
Encoding: 63252 63252 96
Width: 0
VWidth: 0
Flags: W
HStem: 670 85<-232.683 -137.317> 875 85<-232.683 -137.317> 988 152<-307.455 -133.219> 988 100<-219 -150.765> 1220 60<-317.068 -242.932>
VStem: -380 60<1142.96 1217.07> -330 85<767.317 862.683> -240 60<1142.79 1217.07> -125 85<767.317 862.683> -70 150<1176.06 1258>
LayerCount: 2
Fore
SplineSet
-280 1280 m 0xed
 -225 1280 -180 1235 -180 1180 c 0
 -180 1133 -200 1106 -219 1088 c 1xdd
 -143 1088 -70 1186 -70 1258 c 1
 80 1258 l 1
 80 1163 -24 988 -245 988 c 0xeb40
 -285 988 -338 997 -380 1014 c 1
 -355 1028 -326 1056 -308 1084 c 1
 -349 1096 -380 1134 -380 1180 c 0
 -380 1235 -335 1280 -280 1280 c 0xed
-280 1220 m 0
 -302 1220 -320 1202 -320 1180 c 0
 -320 1158 -302 1140 -280 1140 c 0xed
 -258 1140 -240 1158 -240 1180 c 0
 -240 1202 -258 1220 -280 1220 c 0
EndSplineSet
Refer: 39 3661 N 1 0 0 1 100 0 2
Validated: 1
Position2: "Thai Tone-Nikhahit Adjust-1" dx=-250 dy=0 dh=0 dv=0
LCarets2: 1 0 
Ligature2: "Tone-Nikhahit Ligature" uni0E49 uni0E4D
EndChar

StartChar: uni0E4B.nikhahit
Encoding: 63254 63254 97
Width: 0
VWidth: 0
Flags: W
HStem: 670 85<-232.683 -137.317> 875 85<-232.683 -137.317> 1000 250<-250 -100> 1085 80<-335 -250 -100 -15>
VStem: -330 85<767.317 862.683> -250 150<1000 1085 1165 1250> -125 85<767.317 862.683>
LayerCount: 2
Fore
SplineSet
-250 1250 m 1xe4
 -100 1250 l 1xe4
 -100 1165 l 1
 -15 1165 l 1
 -15 1085 l 1
 -100 1085 l 1xd4
 -100 1000 l 1
 -250 1000 l 1xe4
 -250 1085 l 1
 -335 1085 l 1
 -335 1165 l 1
 -250 1165 l 1xd4
 -250 1250 l 1xe4
EndSplineSet
Refer: 39 3661 N 1 0 0 1 100 0 2
Validated: 1
Position2: "Thai Tone-Nikhahit Adjust-1" dx=-250 dy=0 dh=0 dv=0
LCarets2: 1 0 
Ligature2: "Tone-Nikhahit Ligature" uni0E4B uni0E4D
EndChar

StartChar: uni0E4A.nikhahit
Encoding: 63253 63253 98
Width: 0
VWidth: 0
Flags: W
HStem: 670 85<-232.683 -137.317> 875 85<-232.683 -137.317> 988 50<-328.588 -254.925> 1118 50<-302.457 -255.719>
VStem: -400 97<1166.14 1212.06> -400 68<1042.15 1115.56> -330 85<767.317 862.683> -252 50<1040.81 1114.76> -150 99<1097.85 1213.91> -125 85<767.317 862.683> -15 135<1124.27 1260>
LayerCount: 2
Fore
SplineSet
-290 1267 m 1xf520
 -230 1223 l 1
 -170 1267 l 1
 -93 1267 -51 1192 -51 1131 c 0
 -51 1119 -53 1107 -56 1097 c 1
 -27 1135 -15 1194 -15 1260 c 1
 120 1260 l 1
 120 1039 6 988 -197 988 c 1
 -166 1032 -150 1077 -150 1121 c 0
 -150 1153 -158 1184 -175 1215 c 1
 -230 1173 l 1
 -290 1215 l 1
 -290 1215 -303 1196 -303 1176 c 0xf8a0
 -303 1173 -303 1169 -302 1166 c 1
 -302 1166 -297 1168 -292 1168 c 0
 -241 1168 -202 1126 -202 1078 c 0
 -202 1028 -242 988 -292 988 c 0
 -363 988 -400 1039 -400 1118 c 1
 -400 1119 -400 1119 -400 1120 c 0
 -400 1191 -353 1267 -290 1267 c 1xf520
-292 1118 m 0
 -314 1118 -332 1100 -332 1078 c 0
 -332 1056 -314 1038 -292 1038 c 0
 -269 1038 -252 1056 -252 1078 c 0xf520
 -252 1100 -269 1118 -292 1118 c 0
EndSplineSet
Refer: 39 3661 N 1 0 0 1 100 0 2
Validated: 1
Position2: "Thai Tone-Nikhahit Adjust-1" dx=-250 dy=0 dh=0 dv=0
LCarets2: 1 0 
Ligature2: "Tone-Nikhahit Ligature" uni0E4A uni0E4D
EndChar

StartChar: uni0E04
Encoding: 3588 3588 99
Width: 740
Flags: W
HStem: 0 21G<100 272.222 480 660> 210 65<304.361 385.512> 365 65<305.234 385.456> 492 120<274.627 432.696>
VStem: 60 150<293.337 426.764> 100 170<0 211.112> 390 65<279.488 360.512> 480 180<0 439.837>
LayerCount: 2
Fore
SplineSet
355 612 m 0xfb
 551 612 659 497 660 334 c 1
 660 0 l 1
 480 0 l 1
 480 334 l 2
 480 417 448 492 355 492 c 0
 262 492 210 417 210 334 c 0xfb
 210 316 211 306 213 292 c 1
 236 364 275 430 345 430 c 0
 412 430 455 381 455 320 c 0
 455 259 406 210 345 210 c 0
 313 210 295 225 295 225 c 1
 276 208 270 0 270 0 c 1
 100 0 l 1xf7
 100 188 60 200 60 334 c 0
 61 497 159 612 355 612 c 0xfb
345 365 m 0
 320 365 300 345 300 320 c 0
 300 295 320 275 345 275 c 0
 370 275 390 295 390 320 c 0
 390 345 370 365 345 365 c 0
EndSplineSet
Validated: 1
EndChar
